<svg xmlns="http://www.w3.org/2000/svg" viewBox="0 0 500 500"><g id="freepik--World--inject-114"><g id="freepik--world--inject-114"><path d="M131.68,158.31a118.3,118.3,0,1,0,50.78-97.16A118.31,118.31,0,0,0,131.68,158.31Z" style="fill:#ADDB6E"></path><path d="M141.92,206.43A118.29,118.29,0,1,0,148.79,97,118.3,118.3,0,0,0,141.92,206.43Z" style="fill:#fff;opacity:0.55"></path><path d="M232,58c-5.4.3-12.27,2.48-7.13,5.36s8.36,3,8.55,7-2.25,8.27-.86,11,3.62,6,5.64,5,7.42-7.53,10.64-7.36,14.18.24,15.63-3.4,3.08-3.46,5.55-7.53,2.13-9.38-1.07-9.28-3.57,1.48-8.93,1.29-8-3.62-13.14-2.49S236,57.73,232,58Z" style="fill:#455a64"></path><path d="M212,60.14c-6,3.51-18.74,8.94-24.78,7.51-3-.73-6.58-1.78-10.38-2.33a118.57,118.57,0,0,0-43.09,70.8,39.3,39.3,0,0,0,5.65,8.07c4.89,5.32,9.76,5.83,15.73,6.75s3.46,3.14,6.51,6.52a15.19,15.19,0,0,0,5.56,4.3c3.4,1.74-1,5.45-2.13,9.33s-1.46,6,1.57,13.7,11.19,13.68,13.66,16.6-1.38,6.57-.13,12.83,1.57,23,8,32.2,10,7.93,9.26,1.61-3-12.25.48-17.16,11-3.92,13.18-12.73,3.83-8.45,7.76-11.57,2-5.58,5.5-12.45c1.37-2.7,3.33-6.3,2.2-9.33-1.06-2.84-3.75-4.92-6.39-6.2-3.45-1.65-7.3-2.43-10.63-4.31-5.85-3.3-9.41-9.58-14.82-13.56a31.34,31.34,0,0,0-14-5.3c-4.49-.69-9.48,1.17-13.85.08s-4.44-6.47-4.28-9.7-3.11-3.92-6.21-3-4.93-1-6-5.19,5.29-9.7,10.58-10.31,8.21,1.74,9.52,8.53a13.29,13.29,0,0,0,10.88,11c4.93,1,1.68-3.93-1.91-7.27s-3.95-6.48-1.63-14.23,8.76-7.42,13.28-14.64,5.64-2,10.51-1.45,4-2.07,5.66-6.53,7.91-.91,12.82-4.68-5.83-9-5.33-13.81,5.32-4.87,2.36-12,.74-7.57,2.55-10.34S218,56.62,212,60.14Zm-6.48,18c-1.46,3.65-2.86,3-5.33,7s-6.48,6.35-9.11,6.78-7.15-4.11-7.49-7,3.83-3.92,8.55-4.71,8.69-3,12.86-6.56C208.26,70.82,206.94,74.46,205.48,78.09Z" style="fill:#455a64"></path><path d="M367.53,144.83l0,.33a8.35,8.35,0,0,0-4.5,4.83c-2.44,6.69-3,3.83-9.18,8.54s-3.6,8.15-3.09,12.63-6.6,9.84-10.15,11.58-4.76,12-3.39,17-4.51,7.19-8,11.87-5.26,12.35-7.51,16.08a11.21,11.21,0,0,1-10.84,5.53c-4.34-.58-8.62-7.57-11.19-13.68a36.21,36.21,0,0,1-2.54-19.74c1.72-10.73,1.59-24.49-11.35-27.31-4.09-.89-8.34-.71-12.45-1.46s-8.35-2.72-10.19-6.48c-1.54-3.14-1.1-6.9-2.27-10.2-1.31-3.71-4.64-7.13-3.66-10.94.62-2.41,2.8-4,4.84-5.45,3.82-2.65,7.37-4.95,10.31-8.54,2.65-3.25,6.62-5.27,10.59-6.52,6.7-2.1,11.42-.51,15.65,1.41S305,130.75,308,131s5.45-1.42,8.43-1,5,1.83,7.88,1.23.91-3.84.43-5.66-3.08-1.25-6.54-1.14-4.38-.81-5.69-3.06-3.23-.16-4.93-1-1.22,3.35-1.3,5-1.47-1.19-1.47-1.19-1.34,2.28-2,1.29.67-3.54.38-6.07-3.94-1.79-6.3-3.67-5.57-2-8.65-.86-3.68.42-5,3.23-8,4.92-10.16,4.64-.81-4.71.89-8.64,5.54-2.79,7.76-6.78-1-4.41-3.25-5-3-2.61-.88-7.65,5.17-3.8,6.51-1.55,4.11,3.27,7.05,3.19,2.16-2.1,1.92-6.36,1.65-6.6,5.45-8.36,10.16-4.65,12.56-7.06,6.81-1,9.22,1.35,7.57,3.13,13,3.84a4.42,4.42,0,0,0,3.76-1.41A117.72,117.72,0,0,1,367.53,144.83Z" style="fill:#455a64"></path><path d="M347.61,203.85c-2.9-.38-2.61.56-4.21,2.89s-4,5-3.43,7.33.87,5.25,2.8,3.42,1.15-3.87,3.93-5.26S352,204.42,347.61,203.85Z" style="fill:#455a64"></path><path d="M317.57,72.41c-61.87-48.19-94-5.74-69,39.15s84.62,80.23,101.11,63.84S363.56,108.24,317.57,72.41Z" style="fill:#fff;opacity:0.1"></path><path d="M175.61,209.73C121.86,108.08,215.86,45,215.86,45a118.33,118.33,0,1,0,78.36,223.06S211,276.65,175.61,209.73Z" style="opacity:0.1"></path></g></g><g id="freepik--character-3--inject-114"><g id="freepik--Character--inject-114"><path d="M393.23,349.77s-2.55-31.27-1.09-43.07c1.25-10.13,2.83-14.35,3.08-16.65,0,0,2.18-23.78,2.11-44,0-9.71.77-16.64,5.94-28.26l34.34,7.73c.76,5.12,3.58,39.2,4.55,69.53.84,26.55.4,49.81.4,49.81v1.4c0,1.55.37,2.63,1.4,5.11a30.1,30.1,0,0,0,5.43,8.7c.71.75,5.65,4.95,6.31,5.85,2.13,2.42-2.2,3.86-5.43,3.47-3.41-.41-8.72-1.63-10.24-3.68-1-1.37-1.84-6.2-2.88-7.58-3.53-4.68-5-6.69-5-8.19-.08-2.73.84-3.82,1.16-5.36-.32-3.22-7.63-29.58-7.87-38.95-.12-4.46.09-10.61.09-10.61l-5.8-30.84c-2,7.74-5.56,22.19-6.69,29.57-1.38,9-6.14,35.25-9.19,47.19a62.58,62.58,0,0,0-2,9.42l-.09,1.05c-.05,1.34-.44,15.55-.92,18.55-1,6.28-6.59,5.56-7.55.51-.82-4.29-.05-17.64-.05-19.28Z" style="fill:#b16668"></path><path d="M393.23,349.77c-1.57.05-.46,6.11-.81,10-.38,4.19-1.71,7.27-2.06,10.71a14,14,0,0,0,1.43,8.78c1.13,2.49,6.68,5.86,8.72,2.24a20.22,20.22,0,0,0,2.14-11.63c-.3-4-.59-7-.71-10-.11-2.71,1.89-9.1-.15-9.46l-.09,1.05c-.71,1.47-7.66,2.58-8.52-.22Z" style="fill:#37474f"></path><path d="M431.83,353.27c-.45,2,.12,7.32.12,7.32a7.13,7.13,0,0,0,3.91,3l1.25-7.48Z" style="fill:#263238"></path><polygon points="435.86 363.63 442.49 361.35 444.01 355.42 436.58 359.31 435.86 363.63"></polygon><path d="M442.55,346.29v-1.4c.91.43,3,7.68,5.76,12.64,2.52,4.53,7.43,7,9,9,2.16,2.63-1.91,6.11-8.53,4.79-3.28-.66-8.27-2.69-9.65-4.88s-1.88-6.24-3-7.85-3.76-3.45-4.34-5.29a10.15,10.15,0,0,1-.06-5.11c.5-1.69.92-3.73,1.5-3.55l.05,1.28c.46.89,2.07,1.92,5.4,2.05C440.31,348,441.84,347.74,442.55,346.29Z" style="fill:#37474f"></path><path d="M438.26,225.12s2.6,25.09,3.63,47.32.77,50.94.77,50.94-2.27,1.67-7.32,2-6.83-1.37-6.83-1.37-3.22-10-3.8-17.12a72.71,72.71,0,0,1-.16-11.54l-4.92-29.62s-5.56,27.84-6.16,31.38S407,326.69,407,326.69a12,12,0,0,1-8.26,2.13c-4.85-.58-6.88-2.88-6.88-2.88s-1.17-13.34-.34-20.51,2.68-12.67,2.95-17.35-.74-30-.55-40.15,2.13-19.73,10.63-32.06Z" style="fill:#455a64"></path><path d="M419.63,265.7l3.51-18.64s6.52-1.8,9.52-5.84c0,0-.79,4.45-7.48,7.37l-3.75,18.58,1.62,19.12Z" style="fill:#37474f"></path><path d="M467.26,111.08a1.33,1.33,0,0,0-1.76-.43,1.81,1.81,0,0,0-.28-2.22,1.78,1.78,0,0,0-2.25,0s.85-1.76-.6-2.66a1.69,1.69,0,0,0-2.34.33,2,2,0,0,0-1.13-2.58c-1-.48-2.14-.16-3.68,3a4.45,4.45,0,0,0-2.36,1.09,29.53,29.53,0,0,0-2.25,6.07c-.3,1.11.51,3.28,1.15,5.23s.53,3.22.35,7.3h0l-1.67,16.59c-.53,4.49-.61,5.35-1.88,7.61-2.31,4.13-12.63,21.79-15.44,24-2.63,2.09-4,3.31-4,3.31l10.63,16c1.52-7.68,18.46-33.34,20-36.75,2.33-5.1,1.81-4.38,2-7.89,0,0,.28-19.73.44-22.91a12.05,12.05,0,0,1,2.28-5.23,5.59,5.59,0,0,0,1.85-3.12c.67-2.1,1.14-3.85,1.14-3.85S468,112,467.26,111.08Z" style="fill:#b16668"></path><path d="M455.22,106.49a19.28,19.28,0,0,1,2.52-.15c.45,0,2.21,2.38,2.72,2.91s-.33,2.19-2.08,1.73-2.25-.66-2.25-.66a1.45,1.45,0,0,1-.7.55s4.85,3.34,5.21,8.39a15.86,15.86,0,0,0-2.86-5,14.3,14.3,0,0,0-3.52-2.87s1.68-.9,1.84-1.59a11.5,11.5,0,0,0,2.55.84,1.37,1.37,0,0,0,1.5-.77c.18-.37-2.37-3.32-2.37-3.32Z" style="fill:#9a4a4d"></path><path d="M459.62,113.62a1.08,1.08,0,0,1-.62.24c-.5,0-.65-.45-.77-.85a4,4,0,0,1,0-2,.3.3,0,0,0,0-.16.13.13,0,0,0-.08-.13c-.09,0-.17,0-.23.11a8.08,8.08,0,0,0-.48.87,1.23,1.23,0,0,1-.33.42,2.64,2.64,0,0,1-.44.23c-.25.16-.16.48.14.45a1.12,1.12,0,0,0,.6-.25c.08,1.41,1.11,2.38,2.26,1.75-.13,1-.08,2,1.21,2.21a1.67,1.67,0,0,0,1.6-.51,1.46,1.46,0,0,0,.61,1.48,1.32,1.32,0,0,0,1.73-.15A2.35,2.35,0,0,0,465,117l0-.06s0,0,0,0l-.16.12a1.53,1.53,0,0,1-1.36.28,1.18,1.18,0,0,1-.48-.94,5.1,5.1,0,0,1,.24-1.68.15.15,0,0,0,0-.07c0-.06-.11,0-.15,0-.26.22-.45.5-.69.74a1.36,1.36,0,0,1-1.22.41c-.93-.13-1-1.3-.88-2,0-.24.09-.48.12-.73,0,0,0-.08,0-.09h0a1.23,1.23,0,0,0-.35.33A1.92,1.92,0,0,1,459.62,113.62Z" style="fill:#9a4a4d"></path><path d="M457.48,111.68h0S457.52,111.64,457.48,111.68Z" style="fill:#9a4a4d"></path><path d="M414.18,177.66l-10.5,1c2.38,11.84-1.5,19.26-1.5,19.26l2.32,15.33c-.09,1.81-3.51,6-6.33,12.63,5.56,7.24,32.39,9.37,41,2.84-1.44-6.88-2.52-12.1-2.82-14.71l.32-9.46c10.82-9.13-2.58-22.64-7.5-26.92l-6.12-.19Z" style="fill:#ADDB6E"></path><path d="M410.31,173.55c0-1.78-5.91-6-8.87-10.51-2.75-4.16-6.59-15.6,2.51-19.26,0,0-2-5.5,1.61-8.73s8.37-1.23,9.13.12a8.14,8.14,0,0,1,7.62-6,7.1,7.1,0,0,1,7.46,5.57,6.83,6.83,0,0,1,8.3,2.32c3.34,4.61-1.09,8.83-1.09,8.83a3.8,3.8,0,0,1,1.69,3.51c-.26,2-2.12,2.43-2.34,3.4a1,1,0,0,0,1.63.85,2,2,0,0,1-2.3,1.56c-2.11-.12-4-3-4-3Z" style="fill:#263238"></path><path d="M429.79,141.79c2,1.77,4.66,5.66,4.83,17.27.13,9.84-2.84,12.38-4.35,13.14s-4.49.44-7.39,0l.16,5a23.06,23.06,0,0,1,1.87,11.49c-6.09-1.95-10.47-5.82-14.32-10.29l-.52-13s-1.64,1.77-4.61-.74c-2.45-2.07-3.38-5.69-1.6-7.71a4.06,4.06,0,0,1,6.63,1.12s4.4.2,10.24-3.39C427,150.89,428.67,146.45,429.79,141.79Z" style="fill:#b16668"></path><path d="M410.47,157l.1,4.17a2,2,0,0,0,2-2A2.15,2.15,0,0,0,410.47,157Z" style="fill:#263238"></path><path d="M422.77,156.9a1.3,1.3,0,0,1-1.21,1.39,1.32,1.32,0,0,1-1.44-1.17,1.3,1.3,0,0,1,1.21-1.39A1.33,1.33,0,0,1,422.77,156.9Z" style="fill:#263238"></path><path d="M433,156.21a1.3,1.3,0,0,1-1.21,1.38,1.32,1.32,0,0,1-1.44-1.17,1.3,1.3,0,0,1,1.21-1.39A1.33,1.33,0,0,1,433,156.21Z" style="fill:#263238"></path><path d="M422.23,164.45l4.35,1.27a2.21,2.21,0,0,1-2.73,1.71A2.49,2.49,0,0,1,422.23,164.45Z" style="fill:#9a4a4d"></path><path d="M433.14,151.89l-2.87-.72A1.37,1.37,0,0,1,432,150,1.64,1.64,0,0,1,433.14,151.89Z" style="fill:#263238"></path><polygon points="426.58 154.97 426.8 163.02 430.52 161.67 426.58 154.97" style="fill:#9a4a4d"></polygon><path d="M422.88,172.24c-3.05-.3-9.37-1.94-10.44-4.47a6.78,6.78,0,0,0,2.31,3.2c1.93,1.59,8.19,3.31,8.19,3.31Z" style="fill:#9a4a4d"></path><path d="M380,216.94c1.93-8,8.6-21.77,11-28.19,2.71-7.34,7.5-10,12.72-10.13,2,2.45,5.36,10.95-.46,18.16-2.44,5.34-10.47,20.45-10.47,20.45.21,1.42,4.28,16.09,6.59,20.92a3.87,3.87,0,0,0,2,1.88c2.34,1,5.11,3.5,7,4.91,1.47,1.11,2.6,1.27,2.5,1.71a2.1,2.1,0,0,1-2.49,1.37,33.44,33.44,0,0,1-4.65-1.8,57.24,57.24,0,0,0,4.71,6.26c3.18,3.57,3.11,6.67-3,6.84-4.62.14-7.09-2.43-11.29-10.28-1.21-2.27-2.95-5.27-4.4-8.18-3.66-7.35-4.36-8-6.38-12.71C380.18,220.72,379.24,220,380,216.94Z" style="fill:#b16668"></path></g></g><g id="freepik--character-2--inject-114"><g id="freepik--character--inject-114"><path d="M234.18,396.82c-.22.19-.69.89-1.55,1.91a34.38,34.38,0,0,1-2.83,2.79,57.5,57.5,0,0,1-6.4,5.22c-2.68,1.93-5.15,3.21-8.39,5.18a2.77,2.77,0,0,0-.88.75,1.94,1.94,0,0,0-.31.91,3.58,3.58,0,0,0,1.86,3.25,9.55,9.55,0,0,0,3.77,1.08,18.56,18.56,0,0,0,9-.83,25.54,25.54,0,0,0,6.78-4.21,16.18,16.18,0,0,1,5.82-3.39c1.88-.52,4.27-.71,5.8-2.07,1.18-2.45.72-3.68.4-6.08-.27-2,.06-4.92-1.09-4.69l-2.13-.79c0,1.12-2.58,2-4.65,2.22-1.72.21-5,.16-5.11-.65Z" style="fill:#263238"></path><path d="M274.35,394.25c1.76,0,1.14,6.7,1.59,11.08.49,4.7,1.49,8.28,1.93,12.13a15.64,15.64,0,0,1-1.46,9.86c-1.23,2.82-7.4,6.67-9.74,2.65s-2.85-8.62-2.58-13a80.77,80.77,0,0,0-.12-11.05c-.21-3.43-1.5-10.41.79-10.85l.11,1.18c.82,1.64,8.63,2.77,9.55-.37Z" style="fill:#263238"></path><path d="M274.07,282.79c.17,8.53,2,65,2,65a128.44,128.44,0,0,1,1.12,13.92c.23,11.28-.44,40.5-.44,40.5-.73,4.77-13.18,3.93-14.39,1.73,0,0-3.09-41.79-4.5-53-1.23-9.74-4.81-38.14-4.81-38.14l-3,29.27a80.47,80.47,0,0,1,0,11.75c-.37,5.17-2.87,43.27-2.87,43.27-.05,1.9-12.4,4-14.12-.37,0,0-.9-53.31-1-58.05-.11-5.4.65-56.53.65-56.53Z" style="fill:#ADDB6E"></path><path d="M274.07,282.79c.17,8.53,2,65,2,65a128.44,128.44,0,0,1,1.12,13.92c.23,11.28-.44,40.5-.44,40.5-.73,4.77-13.18,3.93-14.39,1.73,0,0-3.09-41.79-4.5-53-1.23-9.74-4.81-38.14-4.81-38.14l-3,29.27a80.47,80.47,0,0,1,0,11.75c-.37,5.17-2.87,43.27-2.87,43.27-.05,1.9-12.4,4-14.12-.37,0,0-.9-53.31-1-58.05-.11-5.4.65-56.53.65-56.53Z" style="opacity:0.30000000000000004"></path><path d="M251.59,297.42a28.51,28.51,0,0,1-9.6-6.16s1.53,4.47,7.81,8.15l.46,40.57L253,312.84Z" style="opacity:0.1"></path><path d="M225.06,275.46l6.62,8.21s4.61-7.64,4.42-7.64-5.83-9.26-5.83-9.26Z" style="fill:#ffa8a7"></path><path d="M238.11,219.65c-5.2-.08-8,3.36-11.81,9.34-3.25,5.11-10.78,17.33-12.9,21-2.39,4.16-2.72,5.85-.85,9,1.78,3,12.36,17.15,12.36,17.15,3.16-.89,8-5.15,9.34-8.65l-7.55-12.09,11-15.57Z" style="fill:#e6e6e6"></path><path d="M259.9,218.34c1.59.39,6.65,1.75,10.76,3.2a11.4,11.4,0,0,1,5.19,4c3,4.35.29,14-1.9,32.26.16,11.77.5,26.41.5,26.41-5.41,3.94-30.66,6.62-42-1.7,0,0-.38-44.18.37-49.92,1.44-11,5.75-13.94,14.64-14.46Z" style="fill:#ADDB6E"></path><path d="M259.9,218.34c1.59.39,6.65,1.75,10.76,3.2a11.4,11.4,0,0,1,5.19,4c3,4.35.29,14-1.9,32.26.16,11.77.5,26.41.5,26.41-5.41,3.94-30.66,6.62-42-1.7,0,0-.38-44.18.37-49.92,1.44-11,5.75-13.94,14.64-14.46Z" style="opacity:0.2"></path><path d="M257.17,191.53a11.88,11.88,0,1,1-11.6-12.16A11.89,11.89,0,0,1,257.17,191.53Z"></path><path d="M265.62,200.18s-2.14,9-2.95,10.46a4.12,4.12,0,0,1-2.41,1.86l.28-6.36Z"></path><path d="M263.51,187.17a4.45,4.45,0,0,1,3.66,1.38c1.55,1.66.54,6.71-1.55,11.63l-3.64.33Z"></path><path d="M260.9,200.49c.71.45,1.78-.92,2.7-1.84s3.88-2.13,5.27,1-1.47,7.25-3.79,7.92c-4,1.15-4.54-1.41-4.54-1.41l-.68,16.21h0a22.48,22.48,0,0,1-12.77,7.29c-1.65-2.44-1.8-6-.11-9.59l.12-4.64a24.74,24.74,0,0,1-5.36.14c-2.91-.52-4.7-2.86-5.5-6.05-1.22-4.86-1.52-10.29-.3-19.18,1.51-10.92,14.32-10.72,21.09-6.23S260.9,200.49,260.9,200.49Z" style="fill:#ffa8a7"></path><path d="M260.87,201.71c.36,0,1.81-2.26,2.73-3.06,1.28-1.11-.09-11.48-.09-11.48a5,5,0,0,0-.73-5.6c-2.53-2.93-5.87-3.78-9.68-3.69-1.4,0-2.77.15-4.16.17a15.24,15.24,0,0,1-4.87-.84c-2.14-.68-4.2-1.61-6.38-2.13a2.1,2.1,0,0,0-2.05.28,1.89,1.89,0,0,0-.33,1.56,6.45,6.45,0,0,0,1.52,3.43,9.53,9.53,0,0,0-2.26-.11,3.12,3.12,0,0,0-2,.95,2.89,2.89,0,0,0-.35,3,5.11,5.11,0,0,0,2.19,2.27,8.41,8.41,0,0,0,6,.94,4.22,4.22,0,0,0,2.53,2.32,13.27,13.27,0,0,0,10.78-.11,14.12,14.12,0,0,0,1.23,1.6,8.34,8.34,0,0,0,1.68,1.27,7.56,7.56,0,0,0,.9.45,5.1,5.1,0,0,1,1,.35c.39.29.35,1.06.41,1.52.2,1.31.36,2.62.62,3.92a6,6,0,0,0,.86,2.68A.7.7,0,0,0,260.87,201.71Z"></path><path d="M263.49,188l4.45-2.25a2.41,2.41,0,0,0-3.3-1.18A2.61,2.61,0,0,0,263.49,188Z"></path><path d="M247.1,215.41s6.55-1.16,8.86-2.32a7.48,7.48,0,0,0,3.23-3,10.39,10.39,0,0,1-1.88,3.63c-1.72,2.1-10.25,3.59-10.25,3.59Z" style="fill:#f28f8f"></path><path d="M249.3,198.89a1.31,1.31,0,1,0,1.24-1.42A1.33,1.33,0,0,0,249.3,198.89Z"></path><path d="M250.14,194l2.88,1.4a1.68,1.68,0,0,0-.77-2.19A1.57,1.57,0,0,0,250.14,194Z"></path><path d="M236.62,195.19l3-1.05a1.55,1.55,0,0,0-2-1A1.69,1.69,0,0,0,236.62,195.19Z"></path><path d="M238.11,198.52a1.31,1.31,0,1,0,1.43-1.23A1.33,1.33,0,0,0,238.11,198.52Z"></path><polygon points="245.18 197.78 244.71 205.64 240.61 204.22 245.18 197.78" style="fill:#f28f8f"></polygon><path d="M249.62,207l-5.15,1.41a2.63,2.63,0,0,0,3.23,2A2.8,2.8,0,0,0,249.62,207Z" style="fill:#b16668"></path><path d="M249.62,208.27a2.33,2.33,0,0,0-.7-.11,2.43,2.43,0,0,0-2.42,2.2l.09,0a2.62,2.62,0,0,0,1.11,0A2.73,2.73,0,0,0,249.62,208.27Z" style="fill:#f28f8f"></path><path d="M260.05,217.72s-2.68,13.43-3.83,22.52-.94,34.74-.32,51c.45,11.85,2.22,33.77,2.22,33.77s2.92.59,10-.57a27.66,27.66,0,0,0,10.35-3.55s-1.11-33.33-2-45c-.78-10.74-.75-16.64-.75-16.64l2.53-24.49s-.19-15.39-5-16C268.35,218.1,260.05,217.72,260.05,217.72Z" style="fill:#fafafa"></path><path d="M264.62,239.75c0-.56.05-1.77.15-3.31.48-7.51-.21-18.36-2.74-18.91l-.23,1c1.86.39,2.15,14.16,1.91,17.8-.1,1.57-.17,2.81-.15,3.43Z" style="fill:#ADDB6E"></path><path d="M260.24,213.34c.74-.15,1.43.24,2,1.27s2,3.21,2,3.21.69,7.22,0,9c-.6,1.56-4.57,8.9-4.57,8.9s.26,7.13.32,9.26-4.06,11-4.52,15.14c0,0-.21-16.78.41-21.44,1.06-8.11,2.41-18.26,4.21-21.58Z" style="fill:#ebebeb"></path><path d="M263.08,263.43a5.71,5.71,0,0,1-3.24.94l.09-.73a4.7,4.7,0,0,0,2.5-.7,9.28,9.28,0,0,1-1.86-2c-1.05-1.64-2.72-12.84-1.7-15.33.85-2.07,3.32-6.56,5.2-6.56h.05c1.88.08,4,4.83,4.67,7,.81,2.57-1.81,13.59-3,15.13a9.06,9.06,0,0,1-2,1.83,4.75,4.75,0,0,0,2.43.9l0,.74h-.09A5.91,5.91,0,0,1,263.08,263.43Zm-3.52-17.53c-.94,2.29.66,13.13,1.64,14.64a8.74,8.74,0,0,0,1.92,2,9.05,9.05,0,0,0,2.09-1.82c1.1-1.44,3.61-12.1,2.87-14.46-.9-2.89-2.89-6.41-4-6.46h0C263,239.8,260.7,243.12,259.56,245.9Z" style="fill:#455a64"></path><path d="M258.8,264a1.09,1.09,0,1,0,1.14-1A1.09,1.09,0,0,0,258.8,264Z" style="fill:#263238"></path><path d="M265.13,264.23a1.09,1.09,0,1,0,1.13-1A1.08,1.08,0,0,0,265.13,264.23Z" style="fill:#263238"></path><path d="M258.69,250.47l.62,0a.26.26,0,0,0,.23-.26,12.44,12.44,0,0,1,.19-4.2c1.09-2.67,3.36-6,4.35-6s3,3.57,3.83,6.33a12.82,12.82,0,0,1-.17,4.2.25.25,0,0,0,.2.28l.62.09a.24.24,0,0,0,.28-.21A12.78,12.78,0,0,0,269,246c-.47-1.47-2.65-7-4.84-7.1s-4.84,5.23-5.43,6.67a12.35,12.35,0,0,0-.27,4.69A.24.24,0,0,0,258.69,250.47Z" style="fill:#ADDB6E"></path><path d="M247.06,216.9c-1,.08-1.39.54-3.64,1.2-4.2,1.25-7.49,1.74-9.19,4-2.82,3.75-2.27,6.83-3,25.86s-.93,73.23-.93,73.23a14.51,14.51,0,0,0,6.42,1.3s-.17-59.81.23-73.27,2.44-20,5.35-24.44c.82-3.72,2.41-5.87,4.7-6.66Z" style="fill:#fafafa"></path><path d="M242.33,224.8c-2.91,4.43-5,11-5.35,24.44,0,1.6-.09,3.85-.13,6.55h0s-2.39-12.19-2-14.78,3.23-7.95,3.23-7.95a24.09,24.09,0,0,1,2.38-12.56,7.9,7.9,0,0,1,2.72-2.49,6.58,6.58,0,0,1,3.85-1.11l-.07,2.85C245.9,220.56,244.9,221.35,242.33,224.8Z" style="fill:#ebebeb"></path><path d="M286.12,267.46a39,39,0,0,1-2.67,3.86,5.46,5.46,0,0,1-3.22,2.18,41.13,41.13,0,0,0-7.88,1.86c-2.25.7-3.67.52-3.74,1.1-.1.74.3,1.6,2.34,2a19.63,19.63,0,0,0,4.49,0,29,29,0,0,1-6.16,5.49c-4.55,3-6.09,5.27-1.36,8.14,3.46,2.11,9.49,1.55,17.82-6.23a90.55,90.55,0,0,0,10.83-12.75Z" style="fill:#ffa8a7"></path><path d="M295.8,275.22c3-3.74,6-8.07,7.86-10.43,5.78-7.33,3.66-10.06,1.07-13.89-20.64-30.55-22-31.9-32-32.2-4.5,7.72-.23,18.29,3.52,22.48l16.18,16.05c-2.41,3.9-7.46,11.64-7.46,11.64S290.36,274,295.8,275.22Z" style="fill:#e6e6e6"></path></g></g><g id="freepik--character-1--inject-114"><g id="freepik--character--inject-114"><path d="M87,389.27c.22,1.1.64,4.2,6.35,4.49s9.1-1.9,10.37-4.74.73-5,.75-7.57,2-4.05,2.47-5.4c.71-2-.83-4.84-.83-4.84Z" style="fill:#263238"></path><path d="M87.13,386.67a32.53,32.53,0,0,1,2.33-3.32A28.06,28.06,0,0,0,94,367.87c0-.31,0-.9.27-1.1s.61,0,.95.13v0a6.3,6.3,0,0,0,1.79.3,32,32,0,0,0,4.69-.6c.39,0,.62,1.21.7,2.52.67-.52.82-1.43,1.42-2,.32-.31.47-.34.42-.8,0-.3-.07-.57-.1-.87.5-.19,1.1,1.74,1.65,3.2.64,1.7,1.42,3.6.89,5.43a14.64,14.64,0,0,1-1.35,2.86,11.36,11.36,0,0,0-1.62,5.18c0,.79.13,1.59.08,2.39a7,7,0,0,1-4.42,6.16c-3.35,1.38-8.53,1.66-11.77-.48C86.51,389.45,86.71,387.64,87.13,386.67Z" style="fill:#ADDB6E"></path><path d="M87.13,386.67a32.53,32.53,0,0,1,2.33-3.32A28.06,28.06,0,0,0,94,367.87c0-.31,0-.9.27-1.1s.61,0,.95.13v0a6.3,6.3,0,0,0,1.79.3,32,32,0,0,0,4.69-.6c.39,0,.62,1.21.7,2.52.67-.52.82-1.43,1.42-2,.32-.31.47-.34.42-.8,0-.3-.07-.57-.1-.87.5-.19,1.1,1.74,1.65,3.2.64,1.7,1.42,3.6.89,5.43a14.64,14.64,0,0,1-1.35,2.86,11.36,11.36,0,0,0-1.62,5.18c0,.79.13,1.59.08,2.39a7,7,0,0,1-4.42,6.16c-3.35,1.38-8.53,1.66-11.77-.48C86.51,389.45,86.71,387.64,87.13,386.67Z" style="opacity:0.30000000000000004"></path><path d="M40.57,373.52a3.46,3.46,0,0,0,.69,2.68,11.88,11.88,0,0,0,9.3,1.35,21.84,21.84,0,0,0,9.1-4.86,12.61,12.61,0,0,1,7.12-3c2.69-.41,4.6-1.25,4.72-2,.21-1.29.12-2.08-.47-2Z" style="fill:#263238"></path><path d="M42.42,369.64c.72-.33,1.43-.68,2.12-1.06A40.73,40.73,0,0,0,50.09,365c.77-.6,1.53-1.22,2.26-1.87s1.46-1.42,2.17-2.16a8.41,8.41,0,0,0,1-1.36,12.45,12.45,0,0,0,1.36-2.94,1.11,1.11,0,0,1,.36-.61.84.84,0,0,1,.81.07,3.56,3.56,0,0,0,.67.35l.7.2a7.63,7.63,0,0,0,2.28.28c2.89-.08,2.91-.67,3.14.24a6.85,6.85,0,0,1,.15,1c1.48-.43,2.61-1.06,2.6-1.64l0-1.84c1.49-.32,1.9,2.36,2.75,5.32.69,2.4,1.49,4.1,1,6-2,2.25-6.11,2.24-8.35,2.89-3.16.91-4.39,3.48-8.7,5.56-6.94,3.36-11.85,1-13.36-.09C39.86,372.86,39.45,371,42.42,369.64Z" style="fill:#ADDB6E"></path><path d="M42.42,369.64c.72-.33,1.43-.68,2.12-1.06A40.73,40.73,0,0,0,50.09,365c.77-.6,1.53-1.22,2.26-1.87s1.46-1.42,2.17-2.16a8.41,8.41,0,0,0,1-1.36,12.45,12.45,0,0,0,1.36-2.94,1.11,1.11,0,0,1,.36-.61.84.84,0,0,1,.81.07,3.56,3.56,0,0,0,.67.35l.7.2a7.63,7.63,0,0,0,2.28.28c2.89-.08,2.91-.67,3.14.24a6.85,6.85,0,0,1,.15,1c1.48-.43,2.61-1.06,2.6-1.64l0-1.84c1.49-.32,1.9,2.36,2.75,5.32.69,2.4,1.49,4.1,1,6-2,2.25-6.11,2.24-8.35,2.89-3.16.91-4.39,3.48-8.7,5.56-6.94,3.36-11.85,1-13.36-.09C39.86,372.86,39.45,371,42.42,369.64Z" style="opacity:0.30000000000000004"></path><path d="M102.51,236.15c.89,10,1.78,17.76,1.82,27.09.08,19.45,0,49.26,0,49.26A67.08,67.08,0,0,1,106,325c.08,12.42,0,42.45,0,42.45s-4.72,4.93-12.35,1.75c0,0-6-44-7.53-56.28C84.69,301.22,80,271.59,80,271.59l-6.19,36.75a122.31,122.31,0,0,1,0,13c-.4,5.69-3.68,36.1-3.68,36.1-3,2.68-11.92,1.3-13.74-1,0,0-.26-42.17-.41-48.17-.32-13,1.64-56.85,2.23-67.13C58.63,233.65,102.51,236.15,102.51,236.15Z" style="fill:#455a64"></path><path d="M80,271.59l-1.79-15a30.07,30.07,0,0,1-10.6-4.88s1.64,4.05,8.41,7.11l1.8,14-4,35.55Z" style="fill:#37474f"></path><path d="M30.4,102.86a1.42,1.42,0,0,1,1.9-.44,2,2,0,0,1,.34-2.39,1.91,1.91,0,0,1,2.41,0s-.88-1.91.7-2.85a1.81,1.81,0,0,1,2.51.38,2.16,2.16,0,0,1,1.25-2.76c1.06-.5,2.32-.14,3.92,3.26A4.81,4.81,0,0,1,46,99.3a32.63,32.63,0,0,1,2.34,6.58c.3,1.21-.61,3.53-1.32,5.62s-.62,3.46-.49,7.85h0l4.81,29.13c3.37,6.34,12.77,20.36,15.76,22.81,2.8,2.29,3.69,3.09,3.69,3.09l-11.49,21.3c-1.82-3.84-17.73-33.33-20.74-39.21-1.95-3.8-2-4.8-2.19-8.58,0,0-1.2-25.09-1.32-28.52-.1-1.62-.91-5-1.76-5.88a6.11,6.11,0,0,1-2-3.4c-.68-2.27-1.16-4.16-1.16-4.16S29.61,103.79,30.4,102.86Z" style="fill:#ffbda7"></path><path d="M71.1,173.3c-1.91-.37-3.67-2.61-5.25-4.28s-9.41-12.84-9.41-12.84S46,159.68,44,170.36c0,0,8.79,15.7,10.73,18.95a36.52,36.52,0,0,1,3.68,10.6S70.71,191.89,71.1,173.3Z" style="fill:#455a64"></path><path d="M43.43,98.1a19.48,19.48,0,0,0-2.7-.2c-.49,0-2.42,2.53-3,3.09s.32,2.37,2.22,1.89a23.67,23.67,0,0,0,2.43-.68,1.56,1.56,0,0,0,.74.61s-5.28,3.52-5.74,9a17,17,0,0,1,3.16-5.35,15.45,15.45,0,0,1,3.83-3s-1.79-1-2-1.73a12.36,12.36,0,0,1-2.76.86,1.48,1.48,0,0,1-1.61-.85c-.19-.4,2.61-3.53,2.61-3.53Z" style="fill:#f0997a"></path><path d="M38.59,105.71a1.24,1.24,0,0,0,.66.27c.54,0,.71-.48.84-.91a4.2,4.2,0,0,0,.08-2.17.37.37,0,0,1,0-.18.18.18,0,0,1,.09-.14c.09,0,.18,0,.24.13a7.16,7.16,0,0,1,.51,1,1.67,1.67,0,0,0,.34.45,3.2,3.2,0,0,0,.48.26.25.25,0,0,1-.16.48,1.24,1.24,0,0,1-.65-.28c-.1,1.52-1.23,2.55-2.46,1.85.13,1.11.06,2.19-1.34,2.36a1.82,1.82,0,0,1-1.71-.57,1.54,1.54,0,0,1-.68,1.58A1.42,1.42,0,0,1,33,109.6a2.62,2.62,0,0,1-.24-.34s0-.05,0-.07,0,0,0,0l.17.13a1.63,1.63,0,0,0,1.46.32,1.3,1.3,0,0,0,.54-1,6,6,0,0,0-.23-1.82.09.09,0,0,1,0-.07c0-.06.12,0,.16,0,.28.24.48.55.74.81a1.49,1.49,0,0,0,1.31.46c1-.13,1.1-1.38,1-2.18,0-.26-.1-.52-.13-.79,0,0,0-.09.05-.09h0a1.16,1.16,0,0,1,.37.36A2.23,2.23,0,0,0,38.59,105.71Z" style="fill:#f0997a"></path><path d="M40.92,103.65Z" style="fill:#f0997a"></path><path d="M90.14,172.8a97.44,97.44,0,0,1,14.55,4.77c4.08,2,1.87,5.31,1.54,9.72-.76,10.29-4.27,30.45-4.27,30.45l1.58,25.79c-5.29,5.64-32.14,7.9-45.63-.38,0,0,.18-41.44.54-47.94.64-11.42,3.61-19.62,10.46-21.34S81.59,170.86,90.14,172.8Z" style="fill:#ADDB6E"></path><path d="M90.14,172.8a97.44,97.44,0,0,1,14.55,4.77c4.08,2,1.87,5.31,1.54,9.72-.76,10.29-4.27,30.45-4.27,30.45l1.58,25.79c-5.29,5.64-32.14,7.9-45.63-.38,0,0,.18-41.44.54-47.94.64-11.42,3.61-19.62,10.46-21.34S81.59,170.86,90.14,172.8Z" style="fill:#fff;opacity:0.6000000000000001"></path><path d="M77.31,151.14a1.41,1.41,0,1,0,1.45-1.43A1.43,1.43,0,0,0,77.31,151.14Z" style="fill:#263238"></path><path d="M78.85,146.41l2.87,1.69a1.75,1.75,0,0,0-.62-2.34A1.63,1.63,0,0,0,78.85,146.41Z" style="fill:#263238"></path><path d="M77.42,159.76l-3.28,1.13A1.71,1.71,0,0,0,76.32,162,1.81,1.81,0,0,0,77.42,159.76Z" style="fill:#f28f8f"></path><path d="M66.15,147.24l2.72-2a1.62,1.62,0,0,0-2.3-.42A1.78,1.78,0,0,0,66.15,147.24Z" style="fill:#263238"></path><path d="M66.65,150.85a1.37,1.37,0,1,0,2.73.07,1.38,1.38,0,0,0-1.32-1.45A1.4,1.4,0,0,0,66.65,150.85Z" style="fill:#263238"></path><polygon points="74.11 148.7 73.41 157.26 68.97 155.61 74.11 148.7" style="fill:#f28f8f"></polygon><path d="M77.38,149.17l20.1-.93c3.79,3,10.83,9.42,10.78,11.14h0l0,1.18h0a.33.33,0,0,1,0,.15c-.75,1.33-3.33,2.09-7.31,2-4.73,0-12.05-.68-13.94-2.39-2.83-2.58-9.58-10.07-9.58-10.07l1-.05C77.75,149.59,77.38,149.17,77.38,149.17Z" style="fill:#ADDB6E"></path><path d="M77.38,149.17l20.1-.93c3.79,3,10.83,9.42,10.78,11.14h0l0,1.18h0a.33.33,0,0,1,0,.15c-.75,1.33-3.33,2.09-7.31,2-4.73,0-12.05-.68-13.94-2.39-2.83-2.58-9.58-10.07-9.58-10.07l1-.05C77.75,149.59,77.38,149.17,77.38,149.17Z" style="opacity:0.4"></path><path d="M97.44,149.37c4,3.18,11.49,10,10.74,11.34s-3.33,2.09-7.31,2c-4.73,0-12.05-.68-13.94-2.39-2.83-2.58-9.58-10.07-9.58-10.07Z" style="fill:#ADDB6E"></path><path d="M97.46,149.37c4,3.18,11.48,10,10.73,11.34s-3.32,2.09-7.31,2c-4.73,0-12-.68-13.93-2.39-2.84-2.58-9.59-10.07-9.59-10.07Z" style="opacity:0.6000000000000001"></path><path d="M97.44,149.37c0,.58-2,1.74-2,1.74l.67-3.51Z" style="fill:#ADDB6E"></path><path d="M97.44,149.37c0,.58-2,1.74-2,1.74l.67-3.51Z" style="opacity:0.30000000000000004"></path><path d="M92.5,137.51s3.12.52,4.2,2.92c.94,2.08.44,7-1,12.39A50.15,50.15,0,0,1,92,162.88a4.17,4.17,0,0,1-2.45,1.85l.33-6.41.36-4.46s-2.76-4-3-7.21c-.29-4.14.63-5.81.63-5.81Z" style="fill:#263238"></path><path d="M87.27,143.57a12,12,0,0,1-12.34,11.61c-6.61-.21-11.22-5.66-11-12.27S69.05,131,75.66,131.24A12,12,0,0,1,87.27,143.57Z" style="fill:#263238"></path><path d="M90.11,153.15c1,1,2-1.43,2.93-2.35s3.92-2.12,5.3,1-1.5,7.58-3.8,8.39a3.25,3.25,0,0,1-3.83-1.28l-.39,14.2c-3.57,6.05-9.58,5.69-12.78,5.26s-3.82-3.79-1.39-6.42l.14-4.4a25.09,25.09,0,0,1-5.4.11c-2.93-.54-4.41-2.8-5.2-6-1.28-5.16-1.61-13.78.63-23.67,3.37-2.46,14.78-1.72,21.58,2.85C87.15,149.65,89.06,152.18,90.11,153.15Z" style="fill:#ffbda7"></path><path d="M67.68,133.68a14.12,14.12,0,0,1,4.95-3.22,12.24,12.24,0,0,1,4.7-.86c2.09.06,4.18-.2,6.26-.07,3.62.21,8,1.81,9.5,5.38.7,1.63.78,3.33-.73,4.41a10.22,10.22,0,0,1-4.46,1.52c-2.7.4-5.38.91-8.09,1.2a24.12,24.12,0,0,1-8.72-.37A11.78,11.78,0,0,1,67.35,140a10.23,10.23,0,0,1-1.6-1.41c-.18-.2-.68-.62-.73-.89s.31-.79.45-1.05A13.44,13.44,0,0,1,67.68,133.68Z" style="fill:#263238"></path><path d="M76.29,167.57s6.61-1.12,8.95-2.27a7.56,7.56,0,0,0,3.27-3,10.39,10.39,0,0,1-1.92,3.65c-1.75,2.09-10.35,3.41-10.35,3.41Z" style="fill:#f0997a"></path><path d="M79.07,150.4a1.43,1.43,0,1,0,2.86.08A1.44,1.44,0,0,0,80.55,149,1.46,1.46,0,0,0,79.07,150.4Z" style="fill:#263238"></path><path d="M80.13,145.84l2.9,1.4a1.7,1.7,0,0,0-.78-2.21A1.58,1.58,0,0,0,80.13,145.84Z" style="fill:#263238"></path><path d="M79.56,158.22l-4.72,1.6A2.45,2.45,0,0,0,78,161.47,2.62,2.62,0,0,0,79.56,158.22Z" style="fill:#b16668"></path><path d="M78,161.47a2.51,2.51,0,0,1-1.3.06A2.27,2.27,0,0,1,79,159.42a2.2,2.2,0,0,1,.63.12A2.57,2.57,0,0,1,78,161.47Z" style="fill:#f28f8f"></path><path d="M66.76,146.64l2.9-1.44a1.55,1.55,0,0,0-2.12-.77A1.71,1.71,0,0,0,66.76,146.64Z" style="fill:#263238"></path><path d="M67.65,150.37a1.35,1.35,0,0,0,1.28,1.41,1.36,1.36,0,0,0,1.36-1.33,1.32,1.32,0,1,0-2.64-.08Z" style="fill:#263238"></path><polygon points="74.72 148.38 74.47 156.9 70.06 156.01 74.72 148.38" style="fill:#f0997a"></polygon><path d="M81.33,128c-8.29-1.09-13.6,2.28-16.36,8.93a12.81,12.81,0,0,0-.89,4.3c5-3.59,16-2.57,23,.51A30.17,30.17,0,0,1,96.26,148a6.61,6.61,0,0,1,1.19,1.43,18,18,0,0,0,1-4.95C99,134.87,91.06,129.23,81.33,128Z" style="fill:#ADDB6E"></path><path d="M81.33,128c-8.29-1.09-13.6,2.28-16.36,8.93a12.81,12.81,0,0,0-.89,4.3c5-3.59,16-2.57,23,.51A30.17,30.17,0,0,1,96.26,148a6.61,6.61,0,0,1,1.19,1.43,18,18,0,0,0,1-4.95C99,134.87,91.06,129.23,81.33,128Z" style="opacity:0.30000000000000004"></path><path d="M80.74,138.08c-2.25-.82-8-1.43-9.71-.94a10.45,10.45,0,0,1-2-2.3c-.76-1.27-.45-2.85.31-3.15s.77.68,3.6,2.18a4.77,4.77,0,0,1-.15-2.91c.5-1.15,1.43,1,3.53,2.37S80.54,135.49,80.74,138.08Z" style="fill:#263238"></path><path d="M129,210.29c-3.44-6.42-10.5-16.27-14.57-23.51-4.23-7.53-4.89-8.6-13.94-10.89-2.16,2.7-2,14.91.6,23.94,2.73,3.77,12.85,15.54,12.85,15.54-.23,1.58-5.15,18-7.7,23.29-.46.94-3,1.76-3.91,2.17-2.59,1.08-5.64,3.86-7.71,5.42-1.62,1.23-2.86,1.39-2.76,1.88a2.31,2.31,0,0,0,2.75,1.52,37,37,0,0,0,5.13-2,63.1,63.1,0,0,1-5.19,6.9c-3.52,3.95-5,7.25,1.75,7.44,5.09.15,8.89-1.49,15.08-10a82.33,82.33,0,0,0,5.35-9.32c4.64-8.7,6.77-14.77,9.38-19.78C129.52,216.32,130.64,213.37,129,210.29Z" style="fill:#ffbda7"></path><path d="M100.48,175.89c4.26.9,6.81,1.77,8.23,2.71s2.93,2.79,6,7.79,11.06,17.55,11.06,17.55-.72,6.92-13.85,10l-11.62-14.2S94.25,186.38,100.48,175.89Z" style="fill:#455a64"></path></g></g><g id="freepik--Shields--inject-114"><g id="freepik--Shield--inject-114"><path d="M369.57,283.06c.06-.81-.12-1.32-.48-1.53h0l-.05,0c-.38-.19-2.88-1.79-3.23-2h0l-.05,0c-.38-.19-1,0-1.66.45-7,5-16.39,5.93-23.41,2.55a16.45,16.45,0,0,1-2.62-2.59l-.12-.15h0a2.76,2.76,0,0,0-.68-.59s-3-1.91-3.27-2l-.11-.07c-.76-.39-1.47,0-2,1.08-7,15.83-21.33,31.63-30.65,35.39a5.11,5.11,0,0,0-1.86,1.29,3.86,3.86,0,0,0-1.11,2.59c-.7,20.65,9.48,54,30.53,65.78a37.32,37.32,0,0,0,3.86,2.37C363.23,356.11,368.73,307.53,369.57,283.06Z" style="fill:#ADDB6E"></path><path d="M369.05,281.49c-.38-.19-.95-.05-1.65.45-8.14,5.8-19.56,6.14-26.67.52,7,3.37,16.42,2.42,23.39-2.56.7-.49,1.28-.64,1.66-.45l.05,0h0C366.17,279.7,368.67,281.3,369.05,281.49Z" style="fill:#fff;opacity:0.4"></path><path d="M337.18,279.05c-.75-.39-1.46,0-2,1.07-7,15.85-21.34,31.64-30.66,35.4a5.3,5.3,0,0,0-1.86,1.28,5,5,0,0,0-.71,1l-3.26-2a4.35,4.35,0,0,1,.7-1,5.11,5.11,0,0,1,1.86-1.29c9.32-3.76,23.64-19.56,30.65-35.39.5-1.12,1.22-1.47,2-1.08l.11.07,1.45.9Z" style="fill:#ADDB6E"></path><path d="M328.81,383.11c-21-11.76-31.19-45.12-30.49-65.75a3.47,3.47,0,0,1,.41-1.58l3.26,2a3.59,3.59,0,0,0-.4,1.58C300.93,338.94,310,369.88,328.81,383.11Z" style="opacity:0.30000000000000004"></path><path d="M369.57,283.06c-.84,24.47-6.34,73.05-36.86,102.45-21.45-11.45-31.83-45.27-31.12-66.11a3.86,3.86,0,0,1,1.11-2.59,5.28,5.28,0,0,1,1.86-1.29c9.32-3.75,23.65-19.55,30.66-35.39.5-1.12,1.21-1.47,2-1.08h0l.11.07a2.76,2.76,0,0,1,.68.59h0l.12.15c6.59,8.21,20.07,8.67,29.31,2.08.7-.49,1.27-.64,1.65-.45l.05,0h0C369.45,281.74,369.63,282.25,369.57,283.06Z" style="fill:#ADDB6E"></path><path d="M337.18,279.05c-.75-.39-1.46,0-2,1.08-7,15.84-21.34,31.64-30.66,35.39a5.28,5.28,0,0,0-1.86,1.29,3.86,3.86,0,0,0-1.11,2.59c-.71,20.84,9.67,54.66,31.12,66.11C349.3,329.33,337.18,279.05,337.18,279.05Z" style="opacity:0.1"></path><path d="M324.39,349.21a116.86,116.86,0,0,0,.34-12.42l11.49-6.37a103.93,103.93,0,0,0-.09-12.81c4.35-2.33,6.23-3.32,10.72-5.63a114.43,114.43,0,0,1,.66,12.42h0c4.46-2.34,5.89-3.07,10.48-5.4a93.07,93.07,0,0,1-1.77,13c-4.68,2.36-5,2.5-9.49,4.83-.72,4.95-1.32,8-2.31,12.63-4.11,2.14-6.07,3.21-10.14,5.53a100.51,100.51,0,0,0,1.91-12.39C332,345,328.56,346.94,324.39,349.21Z" style="fill:#fafafa"></path><path d="M336.22,330.42l-11.49,6.37a116.86,116.86,0,0,1-.34,12.42c4.17-2.27,7.65-4.17,11.8-6.57A100.51,100.51,0,0,1,334.28,355c2.17-1.24,3.75-2.12,5.37-3a235.34,235.34,0,0,0,1.66-37.18l-5.18,2.76A103.93,103.93,0,0,1,336.22,330.42Z" style="fill:#ebebeb"></path><path d="M347.93,290.44c7.3,2.13,13.92-.88,17.72-2.67,0,0-.61,43.21-16.43,70.63,6.61-21.61,6.15-26.1,7.12-42.26C357.3,300.27,353.37,294.6,347.93,290.44Z" style="fill:#fff;opacity:0.4"></path></g><g id="freepik--shield--inject-114"><path d="M130.43,283.06c-.06-.81.12-1.32.48-1.53h0l0,0c.38-.19,2.88-1.79,3.23-2h0l.05,0c.38-.19,1,0,1.66.45,7,5,16.39,5.93,23.41,2.55a16.45,16.45,0,0,0,2.62-2.59l.12-.15h0a2.76,2.76,0,0,1,.68-.59s3-1.91,3.27-2l.11-.07c.76-.39,1.47,0,2,1.08,7,15.83,21.33,31.63,30.65,35.39a5.11,5.11,0,0,1,1.86,1.29,3.86,3.86,0,0,1,1.11,2.59c.7,20.65-9.48,54-30.53,65.78a37.32,37.32,0,0,1-3.86,2.37C136.77,356.11,131.27,307.53,130.43,283.06Z" style="fill:#ADDB6E"></path><path d="M131,281.49c.38-.19,1-.05,1.65.45,8.14,5.8,19.56,6.14,26.67.52-7,3.37-16.42,2.42-23.39-2.56-.7-.49-1.28-.64-1.66-.45l-.05,0h0C133.83,279.7,131.33,281.3,131,281.49Z" style="fill:#fff;opacity:0.4"></path><path d="M162.82,279.05c.75-.39,1.46,0,2,1.07,7,15.85,21.34,31.64,30.66,35.4a5.3,5.3,0,0,1,1.86,1.28,5,5,0,0,1,.71,1l3.26-2a4.35,4.35,0,0,0-.7-1,5.11,5.11,0,0,0-1.86-1.29c-9.32-3.76-23.64-19.56-30.65-35.39-.5-1.12-1.22-1.47-2-1.08l-.11.07-1.45.9Z" style="fill:#ADDB6E"></path><path d="M171.19,383.11c21-11.76,31.19-45.12,30.49-65.75a3.47,3.47,0,0,0-.41-1.58l-3.26,2a3.59,3.59,0,0,1,.4,1.58C199.07,338.94,190,369.88,171.19,383.11Z" style="opacity:0.30000000000000004"></path><path d="M130.43,283.06c.84,24.47,6.34,73.05,36.86,102.45,21.45-11.45,31.83-45.27,31.11-66.11a3.8,3.8,0,0,0-1.1-2.59,5.28,5.28,0,0,0-1.86-1.29c-9.32-3.75-23.65-19.55-30.66-35.39-.5-1.12-1.21-1.47-2-1.08h0l-.11.07a2.76,2.76,0,0,0-.68.59h0l-.12.15c-6.59,8.21-20.07,8.67-29.31,2.08-.7-.49-1.27-.64-1.65-.45l0,0h0C130.55,281.74,130.37,282.25,130.43,283.06Z" style="fill:#ADDB6E"></path><path d="M162.82,279.05c.75-.39,1.46,0,2,1.08,7,15.84,21.34,31.64,30.66,35.39a5.28,5.28,0,0,1,1.86,1.29,3.8,3.8,0,0,1,1.1,2.59c.72,20.84-9.66,54.66-31.11,66.11C150.7,329.33,162.82,279.05,162.82,279.05Z" style="opacity:0.1"></path><path d="M175.61,349.21a116.86,116.86,0,0,1-.34-12.42l-11.49-6.37a103.93,103.93,0,0,1,.09-12.81c-4.35-2.33-6.23-3.32-10.72-5.63a114.43,114.43,0,0,0-.66,12.42h0c-4.46-2.34-5.89-3.07-10.48-5.4a93.07,93.07,0,0,0,1.77,13c4.68,2.36,5,2.5,9.49,4.83.72,4.95,1.32,8,2.31,12.63,4.11,2.14,6.07,3.21,10.14,5.53a100.51,100.51,0,0,1-1.91-12.39C168,345,171.44,346.94,175.61,349.21Z" style="fill:#fafafa"></path><path d="M163.78,330.42l11.49,6.37a116.86,116.86,0,0,0,.34,12.42c-4.17-2.27-7.65-4.17-11.8-6.57A100.51,100.51,0,0,0,165.72,355c-2.17-1.24-3.75-2.12-5.37-3a235.34,235.34,0,0,1-1.66-37.18l5.18,2.76A103.93,103.93,0,0,0,163.78,330.42Z" style="fill:#ebebeb"></path><path d="M152.07,290.44c-7.3,2.13-13.92-.88-17.72-2.67,0,0,.61,43.21,16.43,70.63-6.61-21.61-6.15-26.1-7.12-42.26C142.7,300.27,146.63,294.6,152.07,290.44Z" style="fill:#fff;opacity:0.4"></path></g></g><g id="freepik--Virus--inject-114"><g id="freepik--anti-covid--inject-114"><g id="freepik--anti-covid--inject-114"><g id="freepik--virus--inject-114"><path d="M422.67,62.6a14.66,14.66,0,1,1-17.11,11.71A14.67,14.67,0,0,1,422.67,62.6Z" style="fill:#ADDB6E"></path><path d="M406.13,72.7a6.82,6.82,0,0,1-.61,3.28c0-.58-.79-1.19-2.58-1.62-1.46-.36-2.88-.65-3.9-.85l-.44-.08.16-.86.44.08c1,.19,2.45.43,3.94.63C405,73.52,405.93,73.24,406.13,72.7Z" style="fill:#ADDB6E"></path><path d="M399.3,72.67a2.28,2.28,0,0,1-.05.44,1.85,1.85,0,0,1-.11.42l-.54-.1.16-.86Z" style="opacity:0.2"></path><path d="M398.46,71.45a.53.53,0,0,0-.25,0h-.07l-.08,0,0,0-.06,0h0a2,2,0,0,0-.56,1.17,2.1,2.1,0,0,0,.1,1.29h0l0,.06,0,0,.06.07h0l.05,0a.54.54,0,0,0,.23.1.7.7,0,0,0,.25,0c.34-.06.69-.6.82-1.3s0-1.34-.3-1.51A.54.54,0,0,0,398.46,71.45Z" style="fill:#ADDB6E"></path><path d="M398.15,72c.23,0,.35.47.26,1s-.36.84-.59.8-.24-.2-.27-.45c.11.26.36.27.53,0a1.72,1.72,0,0,0,.17-1c0-.2-.12-.33-.28-.29A.24.24,0,0,1,398.15,72Z" style="opacity:0.30000000000000004"></path><path d="M405.51,78.7a7.66,7.66,0,0,1,.78,3.25c-.23-.53-.51-.93-2.12-.65-1.32.24-1.42.22-2.32.42l-.38.09-.2-.84.38-.09c.9-.22,1-.26,2.26-.65C405.48,79.76,405.55,79.27,405.51,78.7Z" style="fill:#ADDB6E"></path><path d="M401.8,80.84a2.58,2.58,0,0,1,.13.42,2.26,2.26,0,0,1,.07.43l-.53.12-.2-.84Z" style="opacity:0.2"></path><path d="M400.32,79.83a.68.68,0,0,0-.27.13L400,80l0,0-.06.09,0,0a.25.25,0,0,0,0,.07h0a2.4,2.4,0,0,0-.05,1.53,2.44,2.44,0,0,0,.74,1.36h0l.07,0,0,0a.31.31,0,0,0,.1,0h0l.06,0a.61.61,0,0,0,.3,0,.57.57,0,0,0,.26-.12c.35-.23.47-1,.27-1.81s-.64-1.45-1.05-1.5A1,1,0,0,0,400.32,79.83Z" style="fill:#ADDB6E"></path><path d="M400.25,80.57c.27-.07.6.34.73.91s0,1.09-.24,1.15-.36-.1-.51-.35c.24.23.51.11.57-.26a2.13,2.13,0,0,0-.29-1.15c-.14-.19-.29-.29-.44-.17A.28.28,0,0,1,400.25,80.57Z" style="opacity:0.30000000000000004"></path><path d="M407.61,84.62a7.13,7.13,0,0,1,1.71,2.24c-.35-.34-1.07-.28-2.12.43a8.54,8.54,0,0,0-1,.62l-.24.18-.44-.58.23-.18a6.75,6.75,0,0,0,.86-.78C407.59,85.72,407.84,85,407.61,84.62Z" style="fill:#ADDB6E"></path><path d="M405.91,87.23a2.16,2.16,0,0,1,.25.27c.08.11.14.21.2.31l-.37.28-.44-.58Z" style="opacity:0.2"></path><path d="M404.67,87.06a.75.75,0,0,0-.14.17l0,0v0a.14.14,0,0,0,0,.07s0,0,0,0v.06h0a2.09,2.09,0,0,0,1.28,1.68H406a.37.37,0,0,0,.19-.09.54.54,0,0,0,.14-.16c.15-.24,0-.77-.35-1.25s-.84-.75-1.12-.67A.66.66,0,0,0,404.67,87.06Z" style="fill:#ADDB6E"></path><path d="M404.83,87.56c.16-.12.5,0,.75.39s.33.69.17.81-.26,0-.43-.08c.22.08.37-.07.29-.33a1.42,1.42,0,0,0-.52-.66c-.15-.09-.27-.11-.33,0A.21.21,0,0,1,404.83,87.56Z" style="opacity:0.30000000000000004"></path><path d="M411.55,88.87a7,7,0,0,1,2.93,1.6c-.55-.18-1.37.37-2.32,1.92-.78,1.26-1.49,2.5-2,3.4l-.21.38-.76-.42c.07-.12.14-.24.21-.38.48-.9,1.14-2.17,1.78-3.51C412,90.22,412,89.23,411.55,88.87Z" style="fill:#ADDB6E"></path><path d="M409.46,95.27a3.52,3.52,0,0,1,.4.18,2.35,2.35,0,0,1,.37.24c-.1.17-.18.33-.27.48l-.76-.42Z" style="opacity:0.2"></path><path d="M407.62,95.69a.86.86,0,0,0-.09.3v.1a.36.36,0,0,0,0,.11s0,0,0,.06l0,.08h0a3.11,3.11,0,0,0,2.75,1.5h0l.09,0,.05,0,.1,0,0,0a.1.1,0,0,0,.05,0,.61.61,0,0,0,.21-.24.75.75,0,0,0,.09-.29c.06-.43-.44-1.06-1.23-1.48s-1.58-.52-1.91-.23A.64.64,0,0,0,407.62,95.69Z" style="fill:#ADDB6E"></path><path d="M408.14,96.27c.14-.26.69-.23,1.24.07s.86.74.72,1-.33.21-.63.15c.35,0,.45-.32.2-.63a2.14,2.14,0,0,0-1.11-.58c-.25,0-.42,0-.44.22A.29.29,0,0,1,408.14,96.27Z" style="opacity:0.30000000000000004"></path><path d="M417.18,91.3a12.08,12.08,0,0,1,3.17.25c-.54,0-1,.43-1.18,1.37-.13.76-.22,1.5-.27,2a2,2,0,0,0,0,.23l-.82-.07c0-.07,0-.14,0-.22,0-.54.07-1.28.06-2.06C418.11,91.89,417.72,91.39,417.18,91.3Z" style="fill:#ADDB6E"></path><path d="M418.08,94.76a3,3,0,0,1,.42,0l.41,0,0,.36-.82-.07C418.06,95,418.07,94.88,418.08,94.76Z" style="opacity:0.2"></path><path d="M417.06,95.58a.45.45,0,0,0,0,.23l0,0v0a.16.16,0,0,0,0,.07s0,0,0,0l.05,0h0a1.86,1.86,0,0,0,1.09.39,1.9,1.9,0,0,0,1.14-.21h0l.05,0,0,0,0-.06h0l0,0a.65.65,0,0,0,.07-.21.78.78,0,0,0,0-.22c-.09-.3-.6-.56-1.24-.61s-1.18.12-1.31.4A.56.56,0,0,0,417.06,95.58Z" style="fill:#ADDB6E"></path><path d="M417.56,95.81c0-.21.39-.35.83-.31s.78.23.77.44-.16.23-.37.28c.22-.11.2-.34-.06-.46a1.64,1.64,0,0,0-.89-.07c-.17.06-.27.14-.22.28A.27.27,0,0,1,417.56,95.81Z" style="opacity:0.30000000000000004"></path><path d="M423.17,91.21a7,7,0,0,1,3.15-1.11c-.5.28-.64,1.26-.13,3,.41,1.42.86,2.77,1.19,3.73.05.15.1.28.14.41l-.82.29c0-.13-.09-.27-.14-.41-.35-1-.85-2.29-1.41-3.65C424.46,91.79,423.74,91.11,423.17,91.21Z" style="fill:#ADDB6E"></path><path d="M426.52,97a3,3,0,0,1,.4-.18,3.25,3.25,0,0,1,.42-.11c.06.19.12.36.18.52l-.82.29C426.65,97.35,426.59,97.18,426.52,97Z" style="opacity:0.2"></path><path d="M425.47,98.8a.79.79,0,0,0,.18.29l.05,0,0,0,.1.07.05,0,.09,0h0a2.83,2.83,0,0,0,1.76-.12,2.87,2.87,0,0,0,1.46-1h0l.05-.09a.08.08,0,0,0,0,0,.56.56,0,0,0,0-.12s0,0,0,0,0-.05,0-.07a.84.84,0,0,0,0-.35,1,1,0,0,0-.18-.29c-.3-.36-1.18-.41-2.1-.08s-1.58.91-1.59,1.38A1,1,0,0,0,425.47,98.8Z" style="fill:#ADDB6E"></path><path d="M426.32,98.8c-.11-.31.32-.73,1-1s1.23-.16,1.34.15-.07.42-.34.62c.23-.3.07-.6-.36-.62a2.31,2.31,0,0,0-1.28.47c-.21.19-.3.37-.15.52A.3.3,0,0,1,426.32,98.8Z" style="opacity:0.30000000000000004"></path><path d="M428.6,88.7a11,11,0,0,1,2.54-2.41c-.38.46-.3,1.24.5,2.23.65.8,1.31,1.55,1.8,2.08l.2.22-.66.63a2.13,2.13,0,0,0-.21-.22c-.5-.52-1.2-1.22-2-1.92C429.85,88.46,429.08,88.34,428.6,88.7Z" style="fill:#ADDB6E"></path><path d="M432.69,91.14c.1-.11.2-.22.32-.33a3.27,3.27,0,0,1,.35-.3l.28.31-.66.63Z" style="opacity:0.2"></path><path d="M432.67,92.65a.6.6,0,0,0,.21.14l.05,0h.23a2.2,2.2,0,0,0,1.15-.61,2.13,2.13,0,0,0,.67-1.11h0s0,0,0-.07V91a.28.28,0,0,0,0-.09v0a.43.43,0,0,0,0,0,.61.61,0,0,0-.13-.22.6.6,0,0,0-.21-.14c-.31-.15-.91.08-1.43.57s-.78,1.08-.65,1.4A.67.67,0,0,0,432.67,92.65Z" style="fill:#ADDB6E"></path><path d="M433.24,92.4c-.16-.18,0-.59.36-.93s.78-.48.94-.3.08.3,0,.52c.07-.27-.14-.43-.43-.31a1.78,1.78,0,0,0-.72.69c-.08.19-.09.34.06.4A.29.29,0,0,1,433.24,92.4Z" style="opacity:0.30000000000000004"></path><path d="M432.86,83.75a21.24,21.24,0,0,1,1-2.36c-.12.33-.14.83.14,1a3.62,3.62,0,0,0,.69.41l.07,0-.2.5-.08,0a3,3,0,0,0-.77-.17A.9.9,0,0,0,432.86,83.75Z" style="fill:#ADDB6E"></path><path d="M434.35,83.3l.09-.26a2.68,2.68,0,0,1,.12-.24l.18.07-.2.5Z" style="opacity:0.2"></path><path d="M434.75,84.41a.48.48,0,0,0,.2,0H435l.06,0h0l0,0h0a1.66,1.66,0,0,0,.61-.8,1.6,1.6,0,0,0,.13-1h0s0,0,0,0v0a.21.21,0,0,0,0-.06h0l0,0a.4.4,0,0,0-.16-.12.57.57,0,0,0-.18,0c-.27,0-.62.34-.84.85s-.21,1,0,1.19A.33.33,0,0,0,434.75,84.41Z" style="fill:#ADDB6E"></path><path d="M435.07,84.05c-.16-.07-.18-.41,0-.76s.4-.58.57-.51.15.19.13.38c0-.21-.23-.26-.4-.08a1.35,1.35,0,0,0-.29.71c0,.16,0,.27.17.26A.19.19,0,0,1,435.07,84.05Z" style="opacity:0.30000000000000004"></path><path d="M434.51,78.05a8,8,0,0,1-.14-3.34c.11.56.31,1,1.91,1,1.3,0,1.39.07,2.29,0H439l0,.87h-.38c-.9,0-1,.07-2.29.2C434.74,77,434.58,77.48,434.51,78.05Z" style="fill:#ADDB6E"></path><path d="M438.44,76.65c0-.14,0-.28-.05-.43a3.16,3.16,0,0,1,0-.44l.55,0,0,.87Z" style="opacity:0.2"></path><path d="M439.7,77.92a.6.6,0,0,0,.29-.08l.06,0h0l.08-.07,0,0,.05-.06h0a2.91,2.91,0,0,0-.13-3h0l-.06-.06,0,0a.16.16,0,0,0-.08-.06l0,0-.06,0a.58.58,0,0,0-.29,0,.69.69,0,0,0-.29.07c-.38.16-.64.88-.6,1.73s.36,1.54.75,1.66A.58.58,0,0,0,439.7,77.92Z" style="fill:#ADDB6E"></path><path d="M439.91,77.21c-.28,0-.52-.45-.55-1s.18-1.07.46-1.08.33.17.44.44c-.19-.27-.49-.2-.61.15a2.09,2.09,0,0,0,.06,1.18c.11.22.23.34.4.25A.25.25,0,0,1,439.91,77.21Z" style="opacity:0.30000000000000004"></path><path d="M433.5,71.82a7.46,7.46,0,0,1-1.26-2.53c.28.4,1,.48,2.13,0a8.7,8.7,0,0,0,1.06-.42l.27-.13.32.65-.26.14a6.16,6.16,0,0,0-1,.59C433.72,70.74,433.35,71.35,433.5,71.82Z" style="fill:#ADDB6E"></path><path d="M435.61,69.6a2.55,2.55,0,0,1-.33-.66l.42-.2.32.65Z" style="opacity:0.2"></path><path d="M436.8,70a.44.44,0,0,0,.16-.14l0,0h0a.16.16,0,0,0,0-.07,0,0,0,0,1,0,0s0,0,0-.06h0a1.78,1.78,0,0,0-.21-1.08,1.81,1.81,0,0,0-.73-.82h0l-.06,0h-.17a.56.56,0,0,0-.21.06.4.4,0,0,0-.16.13c-.2.21-.16.75.11,1.29s.67.9,1,.87A.53.53,0,0,0,436.8,70Z" style="fill:#ADDB6E"></path><path d="M436.73,69.48c-.17.08-.47-.15-.66-.52s-.19-.75,0-.84.26,0,.41.16c-.2-.12-.38,0-.35.28a1.48,1.48,0,0,0,.38.75c.13.11.25.15.33,0A.22.22,0,0,1,436.73,69.48Z" style="opacity:0.30000000000000004"></path><path d="M430.42,66.88a7.14,7.14,0,0,1-2.57-2.12c.5.28,1.41-.11,2.63-1.43,1-1.09,1.91-2.16,2.57-2.94l.27-.33.67.55-.27.33c-.64.79-1.52,1.9-2.39,3.09C430.26,65.48,430.05,66.44,430.42,66.88Z" style="fill:#ADDB6E"></path><path d="M433.65,61a2.6,2.6,0,0,1-.36-.25c-.12-.1-.22-.2-.32-.3l.35-.42.67.55Z" style="opacity:0.2"></path><path d="M435.53,61a.85.85,0,0,0,.15-.28s0,0,0-.07v-.2s0-.05,0-.08h0a2.66,2.66,0,0,0-.93-1.32,2.61,2.61,0,0,0-1.48-.66h-.14l-.11,0h0l-.06,0a.69.69,0,0,0-.39.47c-.15.41.23,1.11.92,1.68s1.46.81,1.83.59A.88.88,0,0,0,435.53,61Z" style="fill:#ADDB6E"></path><path d="M435.13,60.3c-.18.23-.72.09-1.2-.3s-.71-.89-.52-1.12.36-.14.65,0c-.35,0-.5.23-.31.58a2.13,2.13,0,0,0,1,.78c.24.07.42.06.47-.13A.28.28,0,0,1,435.13,60.3Z" style="opacity:0.30000000000000004"></path><path d="M425.32,63.44a12.48,12.48,0,0,1-3.06-.85c.54.09,1.08-.23,1.41-1.11.28-.71.5-1.41.65-1.92l.06-.22.8.22-.06.22c-.14.51-.31,1.23-.44,2C424.52,62.69,424.82,63.24,425.32,63.44Z" style="fill:#ADDB6E"></path><path d="M425.08,59.9l-.4-.09a2.23,2.23,0,0,1-.39-.13l.09-.34.8.22C425.15,59.67,425.12,59.78,425.08,59.9Z" style="opacity:0.2"></path><path d="M426.25,59.29a.6.6,0,0,0,0-.23s0,0,0-.05v0a.19.19,0,0,0,0-.07.05.05,0,0,1,0,0l0-.05h0a1.82,1.82,0,0,0-1-.59,1.9,1.9,0,0,0-1.16,0h0l-.06,0,0,0a.18.18,0,0,0-.07,0h0l0,0a.63.63,0,0,0-.1.2.55.55,0,0,0,0,.22c0,.31.48.66,1.1.83a1.4,1.4,0,0,0,1.37-.15A.57.57,0,0,0,426.25,59.29Z" style="fill:#ADDB6E"></path><path d="M425.79,59c-.05.2-.44.27-.87.15s-.72-.38-.67-.58.2-.2.42-.21c-.24.08-.26.3,0,.47a1.5,1.5,0,0,0,.87.23c.17,0,.29-.08.27-.23A.21.21,0,0,1,425.79,59Z" style="opacity:0.30000000000000004"></path><path d="M419.34,62.46A5.6,5.6,0,0,1,416,63c.54-.21.82-1.38.58-3.65-.06-.54-.07-1.78-.26-3.06,0-.2-.05-.38-.08-.55l.86-.12c0,.16.05.34.08.54.2,1.28.42,2.65.49,3C418.14,61.38,418.76,62.41,419.34,62.46Z" style="fill:#ADDB6E"></path><path d="M417.22,56.11a2.59,2.59,0,0,1-.42.09,2.25,2.25,0,0,1-.44,0c0-.2-.05-.38-.08-.55l.86-.12C417.17,55.73,417.19,55.91,417.22,56.11Z" style="opacity:0.2"></path><path d="M418.6,54.54a.83.83,0,0,0-.13-.32l0-.06,0,0-.09-.08a.1.1,0,0,0-.05,0l-.08,0h0a2.8,2.8,0,0,0-1.76-.21,2.91,2.91,0,0,0-1.62.71h0l-.06.08a.1.1,0,0,0,0,.05l-.06.1s0,0,0,0a.24.24,0,0,0,0,.08.76.76,0,0,0,0,.34.88.88,0,0,0,.12.32c.23.41,1.08.62,2.05.48s1.72-.6,1.82-1.06A1.27,1.27,0,0,0,418.6,54.54Z" style="fill:#ADDB6E"></path><path d="M417.76,54.38c.05.32-.45.66-1.12.76s-1.25-.08-1.29-.4.15-.4.45-.55c-.29.25-.18.58.24.68a2.41,2.41,0,0,0,1.35-.22c.23-.14.36-.3.23-.49A.36.36,0,0,1,417.76,54.38Z" style="opacity:0.30000000000000004"></path><path d="M413.7,63.9a8.5,8.5,0,0,1-2.95,1.88c.45-.4.42-1.33-.38-2.78-.65-1.17-.6-1-1.1-1.84l-.21-.33.77-.49.21.33c.51.78.51.62,1.3,1.71C412.32,63.72,413.15,64.14,413.7,63.9Z" style="fill:#ADDB6E"></path><path d="M410.05,60.69a3.59,3.59,0,0,1-.77.49l-.22-.35.77-.49Z" style="opacity:0.2"></path><path d="M410.36,59.22a.52.52,0,0,0-.18-.18l-.05,0h0a.19.19,0,0,0-.08,0h-.12a2,2,0,0,0-1.24.38,2.07,2.07,0,0,0-.87,1h0a.64.64,0,0,1,0,.07s0,0,0,0,0,.06,0,.09v0a.09.09,0,0,1,0,0,.54.54,0,0,0,.09.24A.58.58,0,0,0,408,61c.28.21.91.09,1.52-.29s1-.91.9-1.25A.65.65,0,0,0,410.36,59.22Z" style="fill:#ADDB6E"></path><path d="M409.75,59.36c.13.2-.11.57-.52.84s-.86.32-1,.12,0-.31.14-.5c-.12.25.05.44.36.38a1.74,1.74,0,0,0,.84-.55c.12-.17.15-.31,0-.4A.25.25,0,0,1,409.75,59.36Z" style="opacity:0.30000000000000004"></path><path d="M408.5,67.92a21.77,21.77,0,0,1-1.42,2.13,1,1,0,0,0,.06-1,3.72,3.72,0,0,0-.59-.53l-.07,0,.29-.45.08,0a2.61,2.61,0,0,0,.72.31A.91.91,0,0,0,408.5,67.92Z" style="fill:#ADDB6E"></path><path d="M406.94,68.08c0,.08-.09.15-.14.23a1.25,1.25,0,0,1-.16.22l-.16-.11.29-.45Z" style="opacity:0.2"></path><path d="M406.76,66.91a.45.45,0,0,0-.18-.07h-.22a1.68,1.68,0,0,0-.76.66,1.7,1.7,0,0,0-.31,1h0a.11.11,0,0,0,0,0v0l0,.07v0l0,0a.29.29,0,0,0,.13.14.45.45,0,0,0,.18.07c.26.06.67-.21,1-.68s.4-.95.24-1.16A.57.57,0,0,0,406.76,66.91Z" style="fill:#ADDB6E"></path><path d="M406.37,67.2c.16.1.11.44-.1.76s-.51.5-.66.4-.11-.22-.06-.4c0,.21.18.29.38.15a1.35,1.35,0,0,0,.42-.65c0-.15,0-.26-.12-.28A.2.2,0,0,1,406.37,67.2Z" style="opacity:0.30000000000000004"></path><path d="M427.37,64.35c3.69,2.29,9,12,2.71,20.67S412.89,90,410,87.71a14.66,14.66,0,1,0,17.42-23.36Z" style="opacity:0.1"></path><path d="M423.59,85a1.81,1.81,0,0,1,2.5.14,2.08,2.08,0,0,1-3.32,2.23A1.82,1.82,0,0,1,423.59,85Z" style="fill:#ADDB6E"></path><path d="M423.59,85a1.81,1.81,0,0,1,2.5.14,2.08,2.08,0,0,1-3.32,2.23A1.82,1.82,0,0,1,423.59,85Z" style="opacity:0.15"></path><path d="M423.6,87.43c-.52-.1-.57-1,.24-1.61a1.73,1.73,0,0,1,1.85-.33.62.62,0,0,1,.08.89c.08-.33-.13-.62-.62-.63a1.93,1.93,0,0,0-1.57.87A.6.6,0,0,0,423.6,87.43Z" style="opacity:0.15"></path><path d="M419.1,67.94a1.57,1.57,0,1,1,1.45-2C420.8,66.69,420.15,67.6,419.1,67.94Z" style="fill:#ADDB6E"></path><path d="M419.1,67.94a1.57,1.57,0,1,1,1.45-2C420.8,66.69,420.15,67.6,419.1,67.94Z" style="opacity:0.15"></path><path d="M419.77,65.62c.47.24.28,1.1-.68,1.48a1.72,1.72,0,0,1-1.87-.21.62.62,0,0,1,.17-.87c-.17.29-.05.63.42.77a1.94,1.94,0,0,0,1.76-.39C419.86,66.14,419.92,65.82,419.77,65.62Z" style="opacity:0.15"></path><path d="M416.07,79.48A1.32,1.32,0,1,1,414,79,1.51,1.51,0,0,1,416.07,79.48Z" style="fill:#ADDB6E"></path><path d="M416.07,79.48A1.32,1.32,0,1,1,414,79,1.51,1.51,0,0,1,416.07,79.48Z" style="opacity:0.15"></path><path d="M414.06,79.73c0-.44.76-.58,1.36,0a1.43,1.43,0,0,1,.46,1.51.52.52,0,0,1-.73.16c.29,0,.51-.18.46-.58a1.61,1.61,0,0,0-.88-1.23C414.43,79.49,414.16,79.55,414.06,79.73Z" style="opacity:0.15"></path><path d="M424.1,77.3c0-1.11.76-2,1.59-1.94a1.82,1.82,0,0,1,1.42,2.06c-.05,1.11-.76,2-1.59,1.94A1.81,1.81,0,0,1,424.1,77.3Z" style="fill:#ADDB6E"></path><path d="M424.1,77.3c0-1.11.76-2,1.59-1.94a1.82,1.82,0,0,1,1.42,2.06c-.05,1.11-.76,2-1.59,1.94A1.81,1.81,0,0,1,424.1,77.3Z" style="opacity:0.15"></path><path d="M426.05,78.72c-.39.36-1.13-.12-1.16-1.14,0-.81.38-1.56.84-1.69a.62.62,0,0,1,.76.46c-.22-.26-.58-.26-.87.13a1.91,1.91,0,0,0-.24,1.78C425.53,78.62,425.8,78.79,426.05,78.72Z" style="opacity:0.15"></path><path d="M413.11,83.3a1.57,1.57,0,1,1-2.42-.66A1.81,1.81,0,0,1,413.11,83.3Z" style="fill:#ADDB6E"></path><path d="M413.11,83.3a1.57,1.57,0,1,1-2.42-.66A1.81,1.81,0,0,1,413.11,83.3Z" style="opacity:0.15"></path><path d="M410.7,83.46c.06-.52.94-.63,1.62.13a1.71,1.71,0,0,1,.45,1.83.63.63,0,0,1-.88.14c.34.06.61-.17.59-.66a1.93,1.93,0,0,0-1-1.51C411.16,83.21,410.84,83.25,410.7,83.46Z" style="opacity:0.15"></path><path d="M420.89,72.48a1.38,1.38,0,1,1,1.4-2.26,1.38,1.38,0,1,1-1.4,2.26Z" style="fill:#ADDB6E"></path><path d="M420.89,72.48a1.38,1.38,0,1,1,1.4-2.26,1.38,1.38,0,1,1-1.4,2.26Z" style="opacity:0.15"></path><path d="M422.83,71.6c.11.45-.58.82-1.38.39-.63-.34-1-1-.94-1.37a.54.54,0,0,1,.68-.39c-.29,0-.45.33-.28.73a1.71,1.71,0,0,0,1.27,1C422.53,72,422.78,71.81,422.83,71.6Z" style="opacity:0.15"></path><path d="M413.76,71.5c-.81,1.3-2.27,1.85-3.24,1.24s-1.11-2.16-.29-3.46,2.27-1.85,3.24-1.23S414.58,70.21,413.76,71.5Z" style="fill:#ADDB6E"></path><path d="M413.76,71.5c-.81,1.3-2.27,1.85-3.24,1.24s-1.11-2.16-.29-3.46,2.27-1.85,3.24-1.23S414.58,70.21,413.76,71.5Z" style="opacity:0.15"></path><path d="M412.4,68.44c.71-.16,1.28.93.6,2.18-.54,1-1.53,1.62-2.17,1.46a.87.87,0,0,1-.6-1.08c.09.46.52.71,1.14.44a2.64,2.64,0,0,0,1.51-2C413,68.92,412.74,68.53,412.4,68.44Z" style="opacity:0.15"></path><path d="M428.86,80.91a1.17,1.17,0,1,1,.54,1.79A1.36,1.36,0,0,1,428.86,80.91Z" style="fill:#ADDB6E"></path><path d="M428.86,80.91a1.17,1.17,0,1,1,.54,1.79A1.36,1.36,0,0,1,428.86,80.91Z" style="opacity:0.15"></path><path d="M429.92,82.37c-.35.16-.78-.35-.56-1.08s.62-1,1-1a.47.47,0,0,1,.44.5c-.1-.24-.36-.32-.65-.11a1.47,1.47,0,0,0-.58,1.22C429.58,82.18,429.73,82.36,429.92,82.37Z" style="opacity:0.15"></path><path d="M428.32,73.82a1.6,1.6,0,1,1,2.12,1.42C429.64,75.52,428.7,74.89,428.32,73.82Z" style="fill:#ADDB6E"></path><path d="M428.32,73.82a1.6,1.6,0,1,1,2.12,1.42C429.64,75.52,428.7,74.89,428.32,73.82Z" style="opacity:0.15"></path><path d="M430.7,74.44c-.23.48-1.11.31-1.52-.65a1.77,1.77,0,0,1,.15-1.91.65.65,0,0,1,.9.15c-.31-.16-.65,0-.78.45a2,2,0,0,0,.45,1.77C430.18,74.54,430.5,74.6,430.7,74.44Z" style="opacity:0.15"></path><path d="M425.15,68.39a1,1,0,1,1,.86-1.77,1,1,0,1,1-.86,1.77Z" style="fill:#ADDB6E"></path><path d="M425.15,68.39a1,1,0,1,1,.86-1.77,1,1,0,1,1-.86,1.77Z" style="opacity:0.15"></path><path d="M426.51,67.6c.12.32-.36.64-1,.39s-.84-.63-.79-.94a.41.41,0,0,1,.47-.34c-.21.07-.31.28-.15.56a1.23,1.23,0,0,0,1,.6C426.32,67.88,426.49,67.76,426.51,67.6Z" style="opacity:0.15"></path><path d="M409.84,77.89a1.18,1.18,0,0,1-.81,1.42c-.54.07-1-.45-1.14-1.17a1.19,1.19,0,0,1,.8-1.42C409.23,76.66,409.74,77.18,409.84,77.89Z" style="fill:#ADDB6E"></path><path d="M409.84,77.89a1.18,1.18,0,0,1-.81,1.42c-.54.07-1-.45-1.14-1.17a1.19,1.19,0,0,1,.8-1.42C409.23,76.66,409.74,77.18,409.84,77.89Z" style="opacity:0.15"></path><path d="M408.42,77.19c.21-.27.75,0,.87.61A1.12,1.12,0,0,1,409,79a.43.43,0,0,1-.55-.21c.17.14.41.1.55-.18a1.28,1.28,0,0,0,0-1.17C408.77,77.2,408.57,77.12,408.42,77.19Z" style="opacity:0.15"></path><path d="M420.34,81.73a1,1,0,1,1-.7,1.47A1.18,1.18,0,0,1,420.34,81.73Z" style="fill:#ADDB6E"></path><path d="M420.34,81.73a1,1,0,1,1-.7,1.47A1.18,1.18,0,0,1,420.34,81.73Z" style="opacity:0.15"></path><path d="M420.17,83.3c-.33-.1-.3-.68.27-1a1.16,1.16,0,0,1,1.23-.08.42.42,0,0,1,0,.59c.08-.21,0-.42-.35-.46a1.29,1.29,0,0,0-1.09.45A.4.4,0,0,0,420.17,83.3Z" style="opacity:0.15"></path><path d="M415.9,74.31a1,1,0,1,1-1.71-1,1,1,0,1,1,1.71,1Z" style="fill:#ADDB6E"></path><path d="M415.9,74.31a1,1,0,1,1-1.71-1,1,1,0,1,1,1.71,1Z" style="opacity:0.15"></path><path d="M415.19,72.9c.33-.09.62.41.33,1s-.68.79-1,.73a.41.41,0,0,1-.3-.5c0,.22.26.33.54.19a1.25,1.25,0,0,0,.67-1C415.46,73.11,415.36,72.93,415.19,72.9Z" style="opacity:0.15"></path><path d="M417.37,87.19c.71.15,1.19.7,1.08,1.23a1.17,1.17,0,0,1-1.47.69c-.71-.14-1.19-.69-1.08-1.22A1.16,1.16,0,0,1,417.37,87.19Z" style="fill:#ADDB6E"></path><path d="M417.37,87.19c.71.15,1.19.7,1.08,1.23a1.17,1.17,0,0,1-1.47.69c-.71-.14-1.19-.69-1.08-1.22A1.16,1.16,0,0,1,417.37,87.19Z" style="opacity:0.15"></path><path d="M416.25,88.29c-.19-.28.2-.71.86-.62s1,.41,1,.72a.41.41,0,0,1-.38.44c.19-.11.23-.35,0-.58a1.28,1.28,0,0,0-1.12-.34C416.37,88,416.23,88.13,416.25,88.29Z" style="opacity:0.15"></path><path d="M420.53,75a2,2,0,1,1-2.55.58A1.85,1.85,0,0,1,420.53,75Z" style="fill:#ADDB6E"></path><path d="M420.53,75a2,2,0,1,1-2.55.58A1.85,1.85,0,0,1,420.53,75Z" style="opacity:0.15"></path><path d="M418.17,77.34a1.19,1.19,0,0,0,1.84.27c.76-.55.9-2,.08-2.29a1.81,1.81,0,0,1-.32,1.78A1.14,1.14,0,0,1,418.17,77.34Z" style="opacity:0.15"></path></g><path d="M419,45A31.54,31.54,0,1,0,450.5,76.54,31.57,31.57,0,0,0,419,45ZM390.67,76.54a28.17,28.17,0,0,1,6.74-18.3l39.86,39.85a28.27,28.27,0,0,1-46.6-21.55Zm48.94,19.32-40-40a28.27,28.27,0,0,1,40,40Z" style="fill:#455a64"></path></g><path d="M417.26,116.76l-4-10.42h11.49l-4,10.42A1.83,1.83,0,0,1,417.26,116.76Z" style="fill:#455a64"></path></g><g id="freepik--anti-covid--inject-114"><g id="freepik--anti-covid--inject-114"><g id="freepik--virus--inject-114"><path d="M77.33,62.6A14.66,14.66,0,1,0,94.44,74.31,14.67,14.67,0,0,0,77.33,62.6Z" style="fill:#ADDB6E"></path><path d="M93.87,72.7A6.82,6.82,0,0,0,94.48,76c0-.58.79-1.19,2.58-1.62,1.46-.36,2.88-.65,3.9-.85l.44-.08-.16-.86-.44.08c-1,.19-2.45.43-3.94.63C95,73.52,94.07,73.24,93.87,72.7Z" style="fill:#ADDB6E"></path><path d="M100.7,72.67a2.28,2.28,0,0,0,0,.44,1.85,1.85,0,0,0,.11.42l.54-.1-.16-.86Z" style="opacity:0.2"></path><path d="M101.54,71.45a.53.53,0,0,1,.25,0h.07l.08,0,0,0,.06,0h0a2,2,0,0,1,.56,1.17,2.1,2.1,0,0,1-.1,1.29h0l0,.06,0,0-.06.07h0l0,0a.54.54,0,0,1-.23.1.7.7,0,0,1-.25,0c-.34-.06-.69-.6-.82-1.3s0-1.34.3-1.51A.54.54,0,0,1,101.54,71.45Z" style="fill:#ADDB6E"></path><path d="M101.85,72c-.23,0-.35.47-.26,1s.36.84.59.8.24-.2.27-.45c-.11.26-.36.27-.53,0a1.72,1.72,0,0,1-.17-1c0-.2.12-.33.28-.29A.24.24,0,0,0,101.85,72Z" style="opacity:0.30000000000000004"></path><path d="M94.49,78.7A7.66,7.66,0,0,0,93.71,82c.23-.53.51-.93,2.12-.65,1.32.24,1.42.22,2.32.42l.38.09.2-.84-.38-.09c-.9-.22-1-.26-2.26-.65C94.52,79.76,94.45,79.27,94.49,78.7Z" style="fill:#ADDB6E"></path><path d="M98.2,80.84a2.58,2.58,0,0,0-.13.42,2.26,2.26,0,0,0-.07.43l.53.12.2-.84Z" style="opacity:0.2"></path><path d="M99.68,79.83A.68.68,0,0,1,100,80l0,0,0,0,.06.09,0,0a.25.25,0,0,1,0,.07h0a2.4,2.4,0,0,1,0,1.53,2.44,2.44,0,0,1-.74,1.36h0l-.07,0,0,0a.31.31,0,0,1-.1,0h0l-.06,0a.61.61,0,0,1-.3,0,.57.57,0,0,1-.26-.12c-.35-.23-.47-1-.27-1.81s.64-1.45,1-1.5A1,1,0,0,1,99.68,79.83Z" style="fill:#ADDB6E"></path><path d="M99.75,80.57c-.27-.07-.6.34-.73.91s0,1.09.24,1.15.36-.1.51-.35c-.24.23-.51.11-.57-.26a2.13,2.13,0,0,1,.29-1.15c.14-.19.29-.29.44-.17A.28.28,0,0,0,99.75,80.57Z" style="opacity:0.30000000000000004"></path><path d="M92.39,84.62a7.13,7.13,0,0,0-1.71,2.24c.35-.34,1.07-.28,2.12.43a8.54,8.54,0,0,1,1,.62l.24.18.44-.58-.23-.18a6.75,6.75,0,0,1-.86-.78C92.41,85.72,92.16,85,92.39,84.62Z" style="fill:#ADDB6E"></path><path d="M94.09,87.23a2.16,2.16,0,0,0-.25.27c-.08.11-.14.21-.2.31l.37.28.44-.58Z" style="opacity:0.2"></path><path d="M95.33,87.06a.75.75,0,0,1,.14.17l0,0v0a.14.14,0,0,1,0,.07s0,0,0,0v.06h0a2.09,2.09,0,0,1-1.28,1.68H94a.37.37,0,0,1-.19-.09.54.54,0,0,1-.14-.16c-.15-.24,0-.77.35-1.25s.84-.75,1.12-.67A.66.66,0,0,1,95.33,87.06Z" style="fill:#ADDB6E"></path><path d="M95.17,87.56c-.16-.12-.5,0-.75.39s-.33.69-.17.81.26,0,.43-.08c-.22.08-.37-.07-.29-.33a1.42,1.42,0,0,1,.52-.66c.15-.09.27-.11.33,0A.21.21,0,0,0,95.17,87.56Z" style="opacity:0.30000000000000004"></path><path d="M88.45,88.87a7,7,0,0,0-2.93,1.6c.55-.18,1.37.37,2.32,1.92.78,1.26,1.49,2.5,2,3.4l.21.38.76-.42c-.07-.12-.14-.24-.21-.38-.48-.9-1.14-2.17-1.78-3.51C88,90.22,88,89.23,88.45,88.87Z" style="fill:#ADDB6E"></path><path d="M90.54,95.27a3.52,3.52,0,0,0-.4.18,2.35,2.35,0,0,0-.37.24l.27.48.76-.42Z" style="opacity:0.2"></path><path d="M92.38,95.69a.86.86,0,0,1,.09.3v.1a.36.36,0,0,1,0,.11s0,0,0,.06l0,.08h0a3.11,3.11,0,0,1-2.75,1.5h0l-.09,0,0,0-.1,0,0,0a.1.1,0,0,1,0,0,.61.61,0,0,1-.21-.24.75.75,0,0,1-.09-.29c-.06-.43.44-1.06,1.23-1.48s1.58-.52,1.91-.23A.64.64,0,0,1,92.38,95.69Z" style="fill:#ADDB6E"></path><path d="M91.86,96.27c-.14-.26-.69-.23-1.24.07s-.86.74-.72,1,.33.21.63.15c-.35,0-.45-.32-.2-.63a2.14,2.14,0,0,1,1.11-.58c.25,0,.42,0,.44.22A.29.29,0,0,0,91.86,96.27Z" style="opacity:0.30000000000000004"></path><path d="M82.82,91.3a12.08,12.08,0,0,0-3.17.25c.54,0,1,.43,1.18,1.37.13.76.22,1.5.27,2a2,2,0,0,1,0,.23l.82-.07c0-.07,0-.14,0-.22,0-.54-.07-1.28-.06-2.06C81.89,91.89,82.28,91.39,82.82,91.3Z" style="fill:#ADDB6E"></path><path d="M81.92,94.76a3,3,0,0,0-.42,0l-.41,0q0,.2,0,.36l.82-.07C81.94,95,81.93,94.88,81.92,94.76Z" style="opacity:0.2"></path><path d="M82.94,95.58a.45.45,0,0,1,0,.23.08.08,0,0,1,0,0v0a.16.16,0,0,1,0,.07s0,0,0,0l0,0h0a1.86,1.86,0,0,1-1.09.39,1.9,1.9,0,0,1-1.14-.21h0l-.05,0,0,0,0-.06h0l0,0a.65.65,0,0,1-.07-.21.78.78,0,0,1,0-.22c.09-.3.6-.56,1.24-.61s1.18.12,1.31.4A.56.56,0,0,1,82.94,95.58Z" style="fill:#ADDB6E"></path><path d="M82.44,95.81c0-.21-.39-.35-.83-.31s-.78.23-.77.44.16.23.37.28c-.22-.11-.2-.34.06-.46a1.64,1.64,0,0,1,.89-.07c.17.06.27.14.22.28A.27.27,0,0,0,82.44,95.81Z" style="opacity:0.30000000000000004"></path><path d="M76.83,91.21a7,7,0,0,0-3.15-1.11c.5.28.64,1.26.13,3-.41,1.42-.86,2.77-1.19,3.73-.05.15-.1.28-.14.41l.82.29c0-.13.09-.27.14-.41.35-1,.85-2.29,1.41-3.65C75.54,91.79,76.26,91.11,76.83,91.21Z" style="fill:#ADDB6E"></path><path d="M73.48,97a3,3,0,0,0-.4-.18,3.25,3.25,0,0,0-.42-.11c-.06.19-.12.36-.18.52l.82.29C73.35,97.35,73.41,97.18,73.48,97Z" style="opacity:0.2"></path><path d="M74.53,98.8a.79.79,0,0,1-.18.29l0,0,0,0-.1.07,0,0-.09,0h0a2.83,2.83,0,0,1-1.76-.12,2.87,2.87,0,0,1-1.46-1h0l0-.09a.08.08,0,0,1,0,0,.56.56,0,0,1,0-.12s0,0,0,0,0-.05,0-.07a.84.84,0,0,1,0-.35,1,1,0,0,1,.18-.29c.3-.36,1.18-.41,2.1-.08s1.58.91,1.59,1.38A1,1,0,0,1,74.53,98.8Z" style="fill:#ADDB6E"></path><path d="M73.68,98.8c.11-.31-.32-.73-1-1s-1.23-.16-1.34.15.07.42.34.62c-.23-.3-.07-.6.36-.62a2.31,2.31,0,0,1,1.28.47c.21.19.3.37.15.52A.3.3,0,0,0,73.68,98.8Z" style="opacity:0.30000000000000004"></path><path d="M71.4,88.7a11,11,0,0,0-2.54-2.41c.38.46.3,1.24-.5,2.23-.65.8-1.31,1.55-1.8,2.08l-.2.22.66.63a2.13,2.13,0,0,1,.21-.22c.5-.52,1.2-1.22,2-1.92C70.15,88.46,70.92,88.34,71.4,88.7Z" style="fill:#ADDB6E"></path><path d="M67.31,91.14c-.1-.11-.2-.22-.32-.33a3.27,3.27,0,0,0-.35-.3l-.28.31.66.63Z" style="opacity:0.2"></path><path d="M67.33,92.65a.6.6,0,0,1-.21.14l-.05,0h-.23a2.2,2.2,0,0,1-1.15-.61A2.13,2.13,0,0,1,65,91.11h0s0,0,0-.07V91s0-.06,0-.09v0a.43.43,0,0,1,0,0,.61.61,0,0,1,.13-.22.6.6,0,0,1,.21-.14c.31-.15.91.08,1.43.57s.78,1.08.65,1.4A.67.67,0,0,1,67.33,92.65Z" style="fill:#ADDB6E"></path><path d="M66.76,92.4c.16-.18,0-.59-.36-.93s-.78-.48-.94-.3-.08.3,0,.52c-.07-.27.14-.43.43-.31a1.78,1.78,0,0,1,.72.69c.08.19.09.34-.06.4A.29.29,0,0,0,66.76,92.4Z" style="opacity:0.30000000000000004"></path><path d="M67.14,83.75a21.24,21.24,0,0,0-1-2.36c.12.33.14.83-.14,1a3.62,3.62,0,0,1-.69.41l-.07,0,.2.5.08,0a3,3,0,0,1,.77-.17A.9.9,0,0,1,67.14,83.75Z" style="fill:#ADDB6E"></path><path d="M65.65,83.3,65.56,83a2.68,2.68,0,0,0-.12-.24l-.18.07.2.5Z" style="opacity:0.2"></path><path d="M65.25,84.41a.48.48,0,0,1-.2,0H65l-.06,0h0l-.05,0h0a1.92,1.92,0,0,1-.75-1.79h0s0,0,0,0v0l0-.06h0l0,0a.4.4,0,0,1,.16-.12.57.57,0,0,1,.18,0c.27,0,.62.34.84.85s.21,1,0,1.19A.33.33,0,0,1,65.25,84.41Z" style="fill:#ADDB6E"></path><path d="M64.93,84.05c.16-.07.18-.41,0-.76s-.4-.58-.57-.51-.15.19-.13.38c0-.21.23-.26.4-.08a1.35,1.35,0,0,1,.29.71c0,.16,0,.27-.17.26A.19.19,0,0,0,64.93,84.05Z" style="opacity:0.30000000000000004"></path><path d="M65.49,78.05a8,8,0,0,0,.14-3.34c-.11.56-.31,1-1.91,1-1.3,0-1.39.07-2.29,0h-.38l0,.87h.38c.9,0,1,.07,2.29.2C65.26,77,65.42,77.48,65.49,78.05Z" style="fill:#ADDB6E"></path><path d="M61.56,76.65c0-.14,0-.28,0-.43a3.16,3.16,0,0,0,0-.44l-.55,0,0,.87Z" style="opacity:0.2"></path><path d="M60.3,77.92a.6.6,0,0,1-.29-.08l-.06,0h0l-.08-.07,0,0-.05-.06h0a2.91,2.91,0,0,1,.13-3h0l.06-.06,0,0a.16.16,0,0,1,.08-.06l0,0,.06,0a.58.58,0,0,1,.29,0,.69.69,0,0,1,.29.07c.38.16.64.88.6,1.73s-.36,1.54-.75,1.66A.58.58,0,0,1,60.3,77.92Z" style="fill:#ADDB6E"></path><path d="M60.09,77.21c.28,0,.52-.45.55-1s-.18-1.07-.46-1.08-.33.17-.44.44c.19-.27.49-.2.61.15a2.09,2.09,0,0,1-.06,1.18c-.11.22-.23.34-.4.25A.25.25,0,0,0,60.09,77.21Z" style="opacity:0.30000000000000004"></path><path d="M66.5,71.82a7.46,7.46,0,0,0,1.26-2.53c-.28.4-1,.48-2.13,0a8.7,8.7,0,0,1-1.06-.42l-.27-.13-.32.65.26.14a6.16,6.16,0,0,1,1,.59C66.28,70.74,66.65,71.35,66.5,71.82Z" style="fill:#ADDB6E"></path><path d="M64.39,69.6a2.55,2.55,0,0,0,.33-.66l-.42-.2-.32.65Z" style="opacity:0.2"></path><path d="M63.2,70a.44.44,0,0,1-.16-.14l0,0h0a.16.16,0,0,1,0-.07,0,0,0,0,0,0,0s0,0,0-.06h0a1.78,1.78,0,0,1,.21-1.08,1.81,1.81,0,0,1,.73-.82h0l.06,0h.17a.56.56,0,0,1,.21.06.4.4,0,0,1,.16.13c.2.21.16.75-.11,1.29s-.67.9-1,.87A.53.53,0,0,1,63.2,70Z" style="fill:#ADDB6E"></path><path d="M63.27,69.48c.17.08.47-.15.66-.52s.19-.75,0-.84-.26,0-.41.16c.2-.12.38,0,.35.28a1.48,1.48,0,0,1-.38.75c-.13.11-.25.15-.33,0A.22.22,0,0,0,63.27,69.48Z" style="opacity:0.30000000000000004"></path><path d="M69.58,66.88a7.14,7.14,0,0,0,2.57-2.12c-.5.28-1.41-.11-2.63-1.43-1-1.09-1.91-2.16-2.57-2.94l-.27-.33-.67.55.27.33c.64.79,1.52,1.9,2.39,3.09C69.74,65.48,70,66.44,69.58,66.88Z" style="fill:#ADDB6E"></path><path d="M66.35,61a2.6,2.6,0,0,0,.36-.25c.12-.1.22-.2.32-.3l-.35-.42-.67.55Z" style="opacity:0.2"></path><path d="M64.47,61a.85.85,0,0,1-.15-.28s0,0,0-.07v-.2s0-.05,0-.08h0A2.66,2.66,0,0,1,65.25,59a2.61,2.61,0,0,1,1.48-.66h.14l.11,0h0l.06,0a.69.69,0,0,1,.39.47c.15.41-.23,1.11-.92,1.68s-1.46.81-1.83.59A.88.88,0,0,1,64.47,61Z" style="fill:#ADDB6E"></path><path d="M64.87,60.3c.18.23.72.09,1.2-.3s.71-.89.52-1.12-.36-.14-.65,0c.35,0,.5.23.31.58a2.13,2.13,0,0,1-1,.78c-.24.07-.42.06-.47-.13A.28.28,0,0,0,64.87,60.3Z" style="opacity:0.30000000000000004"></path><path d="M74.68,63.44a12.48,12.48,0,0,0,3.06-.85c-.54.09-1.08-.23-1.41-1.11-.28-.71-.5-1.41-.65-1.92l-.06-.22-.8.22.06.22c.14.51.31,1.23.44,2C75.48,62.69,75.18,63.24,74.68,63.44Z" style="fill:#ADDB6E"></path><path d="M74.92,59.9l.4-.09a2.23,2.23,0,0,0,.39-.13l-.09-.34-.8.22C74.85,59.67,74.88,59.78,74.92,59.9Z" style="opacity:0.2"></path><path d="M73.75,59.29a.6.6,0,0,1,0-.23s0,0,0-.05v0a.19.19,0,0,1,0-.07.05.05,0,0,0,0,0l0-.05h0a1.82,1.82,0,0,1,1-.59,1.9,1.9,0,0,1,1.16,0h0l.06,0,0,0a.18.18,0,0,1,.07,0h0l0,0a.63.63,0,0,1,.1.2.55.55,0,0,1,0,.22c0,.31-.48.66-1.1.83a1.4,1.4,0,0,1-1.37-.15A.57.57,0,0,1,73.75,59.29Z" style="fill:#ADDB6E"></path><path d="M74.21,59c.05.2.44.27.87.15s.72-.38.67-.58-.2-.2-.42-.21c.24.08.26.3,0,.47a1.49,1.49,0,0,1-.86.23c-.18,0-.3-.08-.28-.23A.21.21,0,0,0,74.21,59Z" style="opacity:0.30000000000000004"></path><path d="M80.66,62.46A5.6,5.6,0,0,0,84,63c-.54-.21-.82-1.38-.58-3.65.06-.54.07-1.78.26-3.06,0-.2,0-.38.08-.55l-.86-.12c0,.16,0,.34-.08.54-.2,1.28-.42,2.65-.49,3C81.86,61.38,81.24,62.41,80.66,62.46Z" style="fill:#ADDB6E"></path><path d="M82.78,56.11a2.59,2.59,0,0,0,.42.09,2.25,2.25,0,0,0,.44,0c0-.2,0-.38.08-.55l-.86-.12C82.83,55.73,82.81,55.91,82.78,56.11Z" style="opacity:0.2"></path><path d="M81.4,54.54a.83.83,0,0,1,.13-.32l0-.06,0,0,.09-.08a.1.1,0,0,1,0,0l.08,0h0a2.8,2.8,0,0,1,1.76-.21,2.91,2.91,0,0,1,1.62.71h0l.06.08a.1.1,0,0,1,0,.05l.06.1s0,0,0,0a.24.24,0,0,1,0,.08.76.76,0,0,1,0,.34.88.88,0,0,1-.12.32c-.23.41-1.08.62-2.05.48s-1.72-.6-1.82-1.06A1.27,1.27,0,0,1,81.4,54.54Z" style="fill:#ADDB6E"></path><path d="M82.24,54.38c0,.32.45.66,1.12.76s1.25-.08,1.29-.4-.15-.4-.45-.55c.29.25.18.58-.24.68a2.41,2.41,0,0,1-1.35-.22c-.23-.14-.36-.3-.23-.49A.36.36,0,0,0,82.24,54.38Z" style="opacity:0.30000000000000004"></path><path d="M86.3,63.9a8.5,8.5,0,0,0,3,1.88c-.45-.4-.42-1.33.38-2.78.65-1.17.6-1,1.1-1.84q.1-.18.21-.33l-.77-.49-.21.33c-.51.78-.51.62-1.3,1.71C87.68,63.72,86.85,64.14,86.3,63.9Z" style="fill:#ADDB6E"></path><path d="M90,60.69a3.59,3.59,0,0,0,.77.49l.22-.35-.77-.49Z" style="opacity:0.2"></path><path d="M89.64,59.22a.52.52,0,0,1,.18-.18l.05,0h0A.19.19,0,0,1,90,59h.12a2,2,0,0,1,1.24.38,2.07,2.07,0,0,1,.87,1h0a.64.64,0,0,0,0,.07s0,0,0,0,0,.06,0,.09v0a.09.09,0,0,0,0,0,.54.54,0,0,1-.09.24A.58.58,0,0,1,92,61c-.28.21-.91.09-1.52-.29s-1-.91-.9-1.25A.65.65,0,0,1,89.64,59.22Z" style="fill:#ADDB6E"></path><path d="M90.25,59.36c-.13.2.11.57.52.84s.86.32,1,.12,0-.31-.14-.5c.12.25-.05.44-.36.38a1.74,1.74,0,0,1-.84-.55c-.12-.17-.15-.31,0-.4A.25.25,0,0,0,90.25,59.36Z" style="opacity:0.30000000000000004"></path><path d="M91.5,67.92a21.77,21.77,0,0,0,1.42,2.13,1,1,0,0,1-.06-1,3.72,3.72,0,0,1,.59-.53l.07,0L93.23,68l-.08,0a2.61,2.61,0,0,1-.72.31A.91.91,0,0,1,91.5,67.92Z" style="fill:#ADDB6E"></path><path d="M93.06,68.08c0,.08.09.15.14.23a1.25,1.25,0,0,0,.16.22l.16-.11L93.23,68Z" style="opacity:0.2"></path><path d="M93.24,66.91a.45.45,0,0,1,.18-.07h.22a1.68,1.68,0,0,1,.76.66,1.7,1.7,0,0,1,.31,1h0a.11.11,0,0,1,0,0v0l0,.07v0l0,0a.29.29,0,0,1-.13.14.45.45,0,0,1-.18.07c-.26.06-.67-.21-1-.68s-.4-.95-.24-1.16A.57.57,0,0,1,93.24,66.91Z" style="fill:#ADDB6E"></path><path d="M93.63,67.2c-.16.1-.11.44.1.76s.51.5.66.4.11-.22.06-.4c0,.21-.18.29-.38.15a1.35,1.35,0,0,1-.42-.65c0-.15,0-.26.12-.28A.2.2,0,0,0,93.63,67.2Z" style="opacity:0.30000000000000004"></path><path d="M72.63,64.35c-3.69,2.29-9,12-2.71,20.67s17.19,5,20.13,2.69A14.66,14.66,0,1,1,72.63,64.35Z" style="opacity:0.1"></path><path d="M76.41,85a1.81,1.81,0,0,0-2.5.14,2.08,2.08,0,0,0,3.32,2.23A1.82,1.82,0,0,0,76.41,85Z" style="fill:#ADDB6E"></path><path d="M76.41,85a1.81,1.81,0,0,0-2.5.14,2.08,2.08,0,0,0,3.32,2.23A1.82,1.82,0,0,0,76.41,85Z" style="opacity:0.15"></path><path d="M76.4,87.43c.52-.1.57-1-.24-1.61a1.73,1.73,0,0,0-1.85-.33.62.62,0,0,0-.08.89c-.08-.33.13-.62.62-.63a1.93,1.93,0,0,1,1.57.87A.6.6,0,0,1,76.4,87.43Z" style="opacity:0.15"></path><path d="M80.9,67.94a1.57,1.57,0,1,0-1.45-2C79.2,66.69,79.85,67.6,80.9,67.94Z" style="fill:#ADDB6E"></path><path d="M80.9,67.94a1.57,1.57,0,1,0-1.45-2C79.2,66.69,79.85,67.6,80.9,67.94Z" style="opacity:0.15"></path><path d="M80.23,65.62c-.47.24-.28,1.1.68,1.48a1.72,1.72,0,0,0,1.87-.21.62.62,0,0,0-.17-.87c.17.29,0,.63-.42.77a1.94,1.94,0,0,1-1.76-.39C80.14,66.14,80.08,65.82,80.23,65.62Z" style="opacity:0.15"></path><path d="M83.93,79.48A1.32,1.32,0,1,0,86,79,1.51,1.51,0,0,0,83.93,79.48Z" style="fill:#ADDB6E"></path><path d="M83.93,79.48A1.32,1.32,0,1,0,86,79,1.51,1.51,0,0,0,83.93,79.48Z" style="opacity:0.15"></path><path d="M85.94,79.73c0-.44-.76-.58-1.36,0a1.43,1.43,0,0,0-.46,1.51.52.52,0,0,0,.73.16c-.29,0-.51-.18-.46-.58a1.61,1.61,0,0,1,.88-1.23C85.57,79.49,85.84,79.55,85.94,79.73Z" style="opacity:0.15"></path><path d="M75.9,77.3c-.05-1.11-.76-2-1.59-1.94a1.82,1.82,0,0,0-1.42,2.06c0,1.11.76,2,1.59,1.94A1.81,1.81,0,0,0,75.9,77.3Z" style="fill:#ADDB6E"></path><path d="M75.9,77.3c-.05-1.11-.76-2-1.59-1.94a1.82,1.82,0,0,0-1.42,2.06c0,1.11.76,2,1.59,1.94A1.81,1.81,0,0,0,75.9,77.3Z" style="opacity:0.15"></path><path d="M74,78.72c.39.36,1.13-.12,1.16-1.14,0-.81-.38-1.56-.84-1.69a.62.62,0,0,0-.76.46c.22-.26.58-.26.87.13a1.91,1.91,0,0,1,.24,1.78C74.47,78.62,74.2,78.79,74,78.72Z" style="opacity:0.15"></path><path d="M86.89,83.3a1.57,1.57,0,1,0,2.42-.66A1.81,1.81,0,0,0,86.89,83.3Z" style="fill:#ADDB6E"></path><path d="M86.89,83.3a1.57,1.57,0,1,0,2.42-.66A1.81,1.81,0,0,0,86.89,83.3Z" style="opacity:0.15"></path><path d="M89.3,83.46c-.06-.52-.94-.63-1.62.13a1.71,1.71,0,0,0-.45,1.83.63.63,0,0,0,.88.14c-.34.06-.61-.17-.59-.66a1.93,1.93,0,0,1,1-1.51C88.84,83.21,89.16,83.25,89.3,83.46Z" style="opacity:0.15"></path><path d="M79.11,72.48a1.38,1.38,0,1,0-1.4-2.26,1.38,1.38,0,1,0,1.4,2.26Z" style="fill:#ADDB6E"></path><path d="M79.11,72.48a1.38,1.38,0,1,0-1.4-2.26,1.38,1.38,0,1,0,1.4,2.26Z" style="opacity:0.15"></path><path d="M77.17,71.6c-.11.45.58.82,1.38.39.63-.34,1-1,.94-1.37a.54.54,0,0,0-.68-.39c.29,0,.45.33.28.73a1.71,1.71,0,0,1-1.27,1C77.47,72,77.22,71.81,77.17,71.6Z" style="opacity:0.15"></path><path d="M86.24,71.5c.81,1.3,2.27,1.85,3.24,1.24s1.11-2.16.29-3.46-2.27-1.85-3.24-1.23S85.42,70.21,86.24,71.5Z" style="fill:#ADDB6E"></path><path d="M86.24,71.5c.81,1.3,2.27,1.85,3.24,1.24s1.11-2.16.29-3.46-2.27-1.85-3.24-1.23S85.42,70.21,86.24,71.5Z" style="opacity:0.15"></path><path d="M87.6,68.44c-.71-.16-1.28.93-.6,2.18.54,1,1.53,1.62,2.17,1.46a.87.87,0,0,0,.6-1.08c-.09.46-.52.71-1.14.44a2.64,2.64,0,0,1-1.51-2C87.05,68.92,87.26,68.53,87.6,68.44Z" style="opacity:0.15"></path><path d="M71.14,80.91a1.17,1.17,0,1,0-.54,1.79A1.36,1.36,0,0,0,71.14,80.91Z" style="fill:#ADDB6E"></path><path d="M71.14,80.91a1.17,1.17,0,1,0-.54,1.79A1.36,1.36,0,0,0,71.14,80.91Z" style="opacity:0.15"></path><path d="M70.08,82.37c.35.16.78-.35.56-1.08s-.62-1-1-1a.47.47,0,0,0-.44.5c.1-.24.36-.32.65-.11a1.47,1.47,0,0,1,.58,1.22C70.42,82.18,70.27,82.36,70.08,82.37Z" style="opacity:0.15"></path><path d="M71.68,73.82a1.6,1.6,0,1,0-2.12,1.42C70.36,75.52,71.3,74.89,71.68,73.82Z" style="fill:#ADDB6E"></path><path d="M71.68,73.82a1.6,1.6,0,1,0-2.12,1.42C70.36,75.52,71.3,74.89,71.68,73.82Z" style="opacity:0.15"></path><path d="M69.3,74.44c.23.48,1.11.31,1.52-.65a1.77,1.77,0,0,0-.15-1.91.65.65,0,0,0-.9.15c.31-.16.65,0,.78.45a2,2,0,0,1-.45,1.77C69.82,74.54,69.5,74.6,69.3,74.44Z" style="opacity:0.15"></path><path d="M74.85,68.39A1,1,0,1,0,74,66.62a1,1,0,1,0,.86,1.77Z" style="fill:#ADDB6E"></path><path d="M74.85,68.39A1,1,0,1,0,74,66.62a1,1,0,1,0,.86,1.77Z" style="opacity:0.15"></path><path d="M73.49,67.6c-.12.32.36.64,1,.39s.84-.63.79-.94a.41.41,0,0,0-.47-.34c.21.07.31.28.15.56a1.23,1.23,0,0,1-1,.6C73.68,67.88,73.51,67.76,73.49,67.6Z" style="opacity:0.15"></path><path d="M90.16,77.89A1.18,1.18,0,0,0,91,79.31c.54.07,1-.45,1.14-1.17a1.19,1.19,0,0,0-.8-1.42C90.77,76.66,90.26,77.18,90.16,77.89Z" style="fill:#ADDB6E"></path><path d="M90.16,77.89A1.18,1.18,0,0,0,91,79.31c.54.07,1-.45,1.14-1.17a1.19,1.19,0,0,0-.8-1.42C90.77,76.66,90.26,77.18,90.16,77.89Z" style="opacity:0.15"></path><path d="M91.58,77.19c-.21-.27-.75,0-.87.61A1.12,1.12,0,0,0,91.05,79a.43.43,0,0,0,.55-.21c-.17.14-.41.1-.55-.18a1.28,1.28,0,0,1,0-1.17C91.23,77.2,91.43,77.12,91.58,77.19Z" style="opacity:0.15"></path><path d="M79.66,81.73a1,1,0,1,0,.7,1.47A1.18,1.18,0,0,0,79.66,81.73Z" style="fill:#ADDB6E"></path><path d="M79.66,81.73a1,1,0,1,0,.7,1.47A1.18,1.18,0,0,0,79.66,81.73Z" style="opacity:0.15"></path><path d="M79.83,83.3c.33-.1.3-.68-.27-1a1.16,1.16,0,0,0-1.23-.08.42.42,0,0,0,0,.59c-.08-.21,0-.42.35-.46a1.29,1.29,0,0,1,1.09.45A.4.4,0,0,1,79.83,83.3Z" style="opacity:0.15"></path><path d="M84.1,74.31a1,1,0,1,0,1.71-1,1,1,0,1,0-1.71,1Z" style="fill:#ADDB6E"></path><path d="M84.1,74.31a1,1,0,1,0,1.71-1,1,1,0,1,0-1.71,1Z" style="opacity:0.15"></path><path d="M84.81,72.9c-.33-.09-.62.41-.33,1s.68.79,1,.73a.41.41,0,0,0,.3-.5c0,.22-.26.33-.54.19a1.25,1.25,0,0,1-.67-1C84.54,73.11,84.64,72.93,84.81,72.9Z" style="opacity:0.15"></path><path d="M82.63,87.19c-.71.15-1.19.7-1.08,1.23a1.17,1.17,0,0,0,1.47.69c.71-.14,1.19-.69,1.08-1.22A1.16,1.16,0,0,0,82.63,87.19Z" style="fill:#ADDB6E"></path><path d="M82.63,87.19c-.71.15-1.19.7-1.08,1.23a1.17,1.17,0,0,0,1.47.69c.71-.14,1.19-.69,1.08-1.22A1.16,1.16,0,0,0,82.63,87.19Z" style="opacity:0.15"></path><path d="M83.75,88.29c.19-.28-.2-.71-.86-.62s-1,.41-1,.72a.41.41,0,0,0,.38.44c-.19-.11-.23-.35,0-.58a1.28,1.28,0,0,1,1.12-.34C83.63,88,83.77,88.13,83.75,88.29Z" style="opacity:0.15"></path><path d="M79.47,75a2,2,0,1,0,2.55.58A1.85,1.85,0,0,0,79.47,75Z" style="fill:#ADDB6E"></path><path d="M79.47,75a2,2,0,1,0,2.55.58A1.85,1.85,0,0,0,79.47,75Z" style="opacity:0.15"></path><path d="M81.83,77.34a1.19,1.19,0,0,1-1.84.27c-.76-.55-.9-2-.08-2.29a1.81,1.81,0,0,0,.32,1.78A1.14,1.14,0,0,0,81.83,77.34Z" style="opacity:0.15"></path></g><path d="M49.5,76.54A31.54,31.54,0,1,0,81,45,31.58,31.58,0,0,0,49.5,76.54ZM81,104.84a28.13,28.13,0,0,1-18.31-6.75l39.86-39.85A28.28,28.28,0,0,1,81,104.84Zm-28.3-28.3A28.27,28.27,0,0,1,100.35,55.9l-40,40A28.17,28.17,0,0,1,52.74,76.54Z" style="fill:#455a64"></path></g><path d="M82.74,116.76l4-10.42H75.29l4,10.42A1.83,1.83,0,0,0,82.74,116.76Z" style="fill:#455a64"></path></g></g></svg>