<svg xmlns="http://www.w3.org/2000/svg" xmlns:xlink="http://www.w3.org/1999/xlink" viewBox="0 0 500 500"><defs><clipPath id="freepik--clip-path--inject-53"><path d="M436.91,333.41s9.66,19.95,18.15,9.83-5.86-13.93-5.86-13.93,17.28,2.05,17.28-7.32-12.3-3.52-12.3-3.52,16-12.46,8.2-17.72c-5.42-3.65-18.45,9.56-18.45,9.56s5-12.92-.87-13.21-9.67,18.45-9.67,18.45-3.22-13.82-9.07-9.84,4.6,19.32,4.6,19.32-7.53-7.44-9.58-2.16,9.58,8.78,9.58,8.78.08,19.32,6.52,17S436.91,333.41,436.91,333.41Z" style="fill:#92E3A9"></path></clipPath><clipPath id="freepik--clip-path-2--inject-53"><path d="M407.55,282s-23.11,1-21.66-11.38c1.21-10.34,17.57-3.43,17.57-3.43s-13.42-15.65-4.2-21.83S414,257.18,414,257.18s5.88-26,16.19-21.85c7.18,2.92-4.51,24.47-4.51,24.47s13.59-9.27,17.75-3.7-15.94,17.53-15.94,17.53,15.72-5.95,15.67,2.44-22.05,8.22-22.05,8.22,12.29,2.51,8.45,8-15-3.63-15-3.63-15.05,10.89-17,3S407.55,282,407.55,282Z" style="fill:#92E3A9"></path></clipPath><clipPath id="freepik--clip-path-3--inject-53"><path d="M260.41,50.2h0A6.59,6.59,0,0,1,253.88,56H219.54A6.58,6.58,0,0,1,213,50.2h0a6.58,6.58,0,0,0-6.53-5.75H182.32A6.58,6.58,0,0,0,175.74,51V287.11a6.59,6.59,0,0,0,6.58,6.58H292.23a6.58,6.58,0,0,0,6.58-6.58V51a6.57,6.57,0,0,0-6.58-6.58H266.94A6.58,6.58,0,0,0,260.41,50.2Z" style="fill:#92E3A9;stroke:#263238;stroke-linecap:round;stroke-linejoin:round"></path></clipPath><clipPath id="freepik--clip-path-4--inject-53"><path d="M228.28,109.29,230.81,99l7,2.12,2.11,8.38a5.64,5.64,0,0,0,3,3.72,17.76,17.76,0,0,1,3,1.77s-8.34,10.69-24.35,0a16.36,16.36,0,0,1,3.42-1.91A5.52,5.52,0,0,0,228.28,109.29Z" style="fill:#fff;stroke:#263238;stroke-linecap:round;stroke-linejoin:round"></path></clipPath><clipPath id="freepik--clip-path-5--inject-53"><path d="M94.09,211.42c2-4.86-2.89-19.56-5.08-25.59a2.27,2.27,0,0,0-3.65-.91c-2,1.77-4.39,5.21-4.79,11.59,0,0-15.26,26.87-15.26,39.13,0,11.49,22.72,35.42,22.72,35.42a10.61,10.61,0,0,0,6.06-4.86s-8.49-21-15.08-30C79,236.21,91.84,216.8,94.09,211.42Z" style="fill:#263238;stroke:#263238;stroke-linecap:round;stroke-linejoin:round"></path></clipPath><clipPath id="freepik--clip-path-6--inject-53"><path d="M94.09,266.2s-3.52,14.56-2.13,46l.9,35.6s-5.06,25,4.65,70.26c0,0,3,6.7,15.09-1.68L114,347.33l12.65-76.27Z" style="fill:#999;stroke:#263238;stroke-linecap:round;stroke-linejoin:round"></path></clipPath><clipPath id="freepik--clip-path-7--inject-53"><path d="M116.81,303.33c9,14.53,21.67,43.12,21.67,43.12s-1.91,3.31,0,8.86c0,0-5,19.31,2.25,65.48,0,0,6.24,4,15.26-3,0,0,4.5-69.4,2.77-78.76s-18-71.18-18-71.18H105" style="fill:#999;stroke:#263238;stroke-linecap:round;stroke-linejoin:round"></path></clipPath><clipPath id="freepik--clip-path-8--inject-53"><path d="M121.55,177.83c8.93,1,24.5,3.15,23.57,27.16s-4.39,62.84-4.39,62.84S96.07,286.91,91,269.21c0,0,2.32-20-5.08-51.13S81.87,173.5,121.55,177.83Z" style="fill:#263238;stroke:#263238;stroke-linecap:round;stroke-linejoin:round"></path></clipPath><clipPath id="freepik--clip-path-9--inject-53"><path d="M125,178.27s15.47.1,22.4,4.26c0,0,12.25-2.08,17.11,0l4.39-16.41s5.78-2.78,8.55,1.38c0,0,2.08,25-1.38,27.05s-30.94,8.32-30.94,8.32S127.58,197.59,125,178.27Z" style="fill:#263238;stroke:#263238;stroke-linecap:round;stroke-linejoin:round"></path></clipPath></defs><g id="freepik--Device--inject-53"><path d="M300.26,38.73H286.63V299.41h13.63a8.19,8.19,0,0,0,8.18-8.19V46.92A8.19,8.19,0,0,0,300.26,38.73Z" style="fill:#999;stroke:#263238;stroke-linecap:round;stroke-linejoin:round"></path><rect x="170.47" y="38.73" width="133.61" height="260.68" rx="7.5" style="fill:#263238;stroke:#263238;stroke-linecap:round;stroke-linejoin:round"></rect><path d="M260.41,50.2h0A6.59,6.59,0,0,1,253.88,56H219.54A6.58,6.58,0,0,1,213,50.2h0a6.58,6.58,0,0,0-6.53-5.75H182.32A6.58,6.58,0,0,0,175.74,51V287.11a6.59,6.59,0,0,0,6.58,6.58H292.23a6.58,6.58,0,0,0,6.58-6.58V51a6.57,6.57,0,0,0-6.58-6.58H266.94A6.58,6.58,0,0,0,260.41,50.2Z" style="fill:#92E3A9"></path><g style="clip-path:url(#freepik--clip-path-3--inject-53)"><polygon points="211.99 310.27 171.83 310.27 268.64 25.27 308.8 25.27 211.99 310.27" style="fill:#fff;opacity:0.4"></polygon><polygon points="240.07 310.27 229.39 310.27 326.21 25.27 336.89 25.27 240.07 310.27" style="fill:#fff;opacity:0.4"></polygon></g><path d="M260.41,50.2h0A6.59,6.59,0,0,1,253.88,56H219.54A6.58,6.58,0,0,1,213,50.2h0a6.58,6.58,0,0,0-6.53-5.75H182.32A6.58,6.58,0,0,0,175.74,51V287.11a6.59,6.59,0,0,0,6.58,6.58H292.23a6.58,6.58,0,0,0,6.58-6.58V51a6.57,6.57,0,0,0-6.58-6.58H266.94A6.58,6.58,0,0,0,260.41,50.2Z" style="fill:none;stroke:#263238;stroke-linecap:round;stroke-linejoin:round"></path><path d="M225.46,47.83a3,3,0,1,1-3-3A3,3,0,0,1,225.46,47.83Z" style="fill:#92E3A9;stroke:#263238;stroke-linecap:round;stroke-linejoin:round"></path><path d="M249.18,44.92H234a2.91,2.91,0,0,0,0,5.82h15.18a2.91,2.91,0,0,0,0-5.82Z" style="fill:#999;stroke:#263238;stroke-linecap:round;stroke-linejoin:round"></path><path d="M251,280.87H221.82a3,3,0,1,0,0,6H251a3,3,0,1,0,0-6Z" style="fill:#999;stroke:#263238;stroke-linecap:round;stroke-linejoin:round"></path><path d="M309.93,105.07V85.57a1.63,1.63,0,0,0-3.26,0v19.5a1.63,1.63,0,0,0,3.26,0Z" style="fill:#263238"></path><path d="M309.93,119.55v-6.49a1.63,1.63,0,0,0-3.26,0v6.49a1.63,1.63,0,1,0,3.26,0Z" style="fill:#263238"></path><rect x="165.85" y="133.93" width="147.11" height="33.14" style="fill:#fff;stroke:#263238;stroke-linecap:round;stroke-linejoin:round"></rect><path d="M183.63,154l-2.38-1.81.39,2.91a1.32,1.32,0,0,1-1.3,1.5h0a1.32,1.32,0,0,1-1.31-1.5l.39-2.91L177,154a1.32,1.32,0,0,1-1.94-.38l0-.06a1.32,1.32,0,0,1,.63-1.88l2.73-1.14-2.73-1.15a1.32,1.32,0,0,1-.63-1.88l0-.05A1.32,1.32,0,0,1,177,147l2.38,1.81-.39-2.91a1.31,1.31,0,0,1,1.31-1.49h0a1.31,1.31,0,0,1,1.3,1.49l-.39,2.91,2.38-1.81a1.32,1.32,0,0,1,1.94.39l0,.05a1.32,1.32,0,0,1-.63,1.88l-2.73,1.15,2.73,1.14a1.32,1.32,0,0,1,.63,1.88l0,.06A1.32,1.32,0,0,1,183.63,154Z" style="fill:#263238"></path><path d="M204.84,154l-2.38-1.81.39,2.91a1.33,1.33,0,0,1-1.31,1.5h0a1.32,1.32,0,0,1-1.3-1.5l.38-2.91L198.25,154a1.32,1.32,0,0,1-1.94-.38l0-.06a1.32,1.32,0,0,1,.63-1.88l2.72-1.14-2.72-1.15a1.32,1.32,0,0,1-.63-1.88l0-.05a1.32,1.32,0,0,1,1.94-.39l2.37,1.81-.38-2.91a1.31,1.31,0,0,1,1.3-1.49h0a1.32,1.32,0,0,1,1.31,1.49l-.39,2.91,2.38-1.81a1.31,1.31,0,0,1,1.93.39l0,.05a1.32,1.32,0,0,1-.63,1.88l-2.73,1.15,2.73,1.14a1.32,1.32,0,0,1,.63,1.88l0,.06A1.31,1.31,0,0,1,204.84,154Z" style="fill:#263238"></path><path d="M226,154l-2.37-1.81.39,2.91a1.33,1.33,0,0,1-1.31,1.5h0a1.33,1.33,0,0,1-1.31-1.5l.39-2.91L219.46,154a1.32,1.32,0,0,1-1.94-.38l0-.06a1.32,1.32,0,0,1,.63-1.88l2.73-1.14-2.73-1.15a1.32,1.32,0,0,1-.63-1.88l0-.05a1.32,1.32,0,0,1,1.94-.39l2.37,1.81-.39-2.91a1.32,1.32,0,0,1,1.31-1.49h0a1.32,1.32,0,0,1,1.31,1.49l-.39,2.91L226,147a1.32,1.32,0,0,1,1.94.39l0,.05a1.31,1.31,0,0,1-.62,1.88l-2.73,1.15,2.72,1.14a1.32,1.32,0,0,1,.63,1.88l0,.06A1.32,1.32,0,0,1,226,154Z" style="fill:#263238"></path><path d="M247.25,154l-2.38-1.81.39,2.91a1.32,1.32,0,0,1-1.3,1.5h0a1.32,1.32,0,0,1-1.31-1.5l.39-2.91L240.66,154a1.32,1.32,0,0,1-1.94-.38l0-.06a1.32,1.32,0,0,1,.63-1.88l2.73-1.14-2.73-1.15a1.32,1.32,0,0,1-.63-1.88l0-.05a1.32,1.32,0,0,1,1.94-.39l2.38,1.81-.39-2.91a1.31,1.31,0,0,1,1.31-1.49h0a1.31,1.31,0,0,1,1.3,1.49l-.39,2.91,2.38-1.81a1.32,1.32,0,0,1,1.94.39l0,.05a1.32,1.32,0,0,1-.63,1.88l-2.72,1.15,2.72,1.14a1.32,1.32,0,0,1,.63,1.88l0,.06A1.32,1.32,0,0,1,247.25,154Z" style="fill:#263238"></path><path d="M268.46,154l-2.38-1.81.39,2.91a1.33,1.33,0,0,1-1.31,1.5h0a1.32,1.32,0,0,1-1.3-1.5l.38-2.91L261.87,154a1.32,1.32,0,0,1-1.94-.38l0-.06a1.32,1.32,0,0,1,.63-1.88l2.72-1.14-2.72-1.15a1.32,1.32,0,0,1-.63-1.88l0-.05a1.32,1.32,0,0,1,1.94-.39l2.37,1.81-.38-2.91a1.31,1.31,0,0,1,1.3-1.49h0a1.32,1.32,0,0,1,1.31,1.49l-.39,2.91,2.38-1.81a1.31,1.31,0,0,1,1.93.39l0,.05a1.32,1.32,0,0,1-.63,1.88l-2.73,1.15,2.73,1.14a1.32,1.32,0,0,1,.63,1.88l0,.06A1.31,1.31,0,0,1,268.46,154Z" style="fill:#263238"></path><path d="M303.91,150.5s-4.32,5.39-9.65,5.39-9.64-5.39-9.64-5.39,4.31-5.4,9.64-5.4S303.91,150.5,303.91,150.5Z" style="fill:#fff;stroke:#263238;stroke-linecap:round;stroke-linejoin:round"></path><path d="M297.58,150.5a3.32,3.32,0,1,1-3.32-3.32A3.32,3.32,0,0,1,297.58,150.5Z" style="fill:#999;stroke:#263238;stroke-linecap:round;stroke-linejoin:round"></path><rect x="181.74" y="183.62" width="16.71" height="19.24" rx="3.97" style="fill:#92E3A9;stroke:#263238;stroke-linecap:round;stroke-linejoin:round"></rect><rect x="200.38" y="183.62" width="16.71" height="19.24" rx="3.97" style="fill:#92E3A9;stroke:#263238;stroke-linecap:round;stroke-linejoin:round"></rect><rect x="219.01" y="183.62" width="16.71" height="19.24" rx="3.97" style="fill:#92E3A9;stroke:#263238;stroke-linecap:round;stroke-linejoin:round"></rect><rect x="237.64" y="183.62" width="16.71" height="19.24" rx="3.97" style="fill:#92E3A9;stroke:#263238;stroke-linecap:round;stroke-linejoin:round"></rect><rect x="256.28" y="183.62" width="16.71" height="19.24" rx="3.97" style="fill:#92E3A9;stroke:#263238;stroke-linecap:round;stroke-linejoin:round"></rect><rect x="274.91" y="183.62" width="16.71" height="19.24" rx="3.97" style="fill:#92E3A9;stroke:#263238;stroke-linecap:round;stroke-linejoin:round"></rect><rect x="191.06" y="205.92" width="16.71" height="19.24" rx="3.97" style="fill:#92E3A9;stroke:#263238;stroke-linecap:round;stroke-linejoin:round"></rect><rect x="209.69" y="205.92" width="16.71" height="19.24" rx="3.97" style="fill:#92E3A9;stroke:#263238;stroke-linecap:round;stroke-linejoin:round"></rect><rect x="228.33" y="205.92" width="16.71" height="19.24" rx="3.97" style="fill:#92E3A9;stroke:#263238;stroke-linecap:round;stroke-linejoin:round"></rect><rect x="246.96" y="205.92" width="16.71" height="19.24" rx="3.97" style="fill:#92E3A9;stroke:#263238;stroke-linecap:round;stroke-linejoin:round"></rect><rect x="265.59" y="205.92" width="16.71" height="19.24" rx="3.97" style="fill:#92E3A9;stroke:#263238;stroke-linecap:round;stroke-linejoin:round"></rect><rect x="181.74" y="228.22" width="16.71" height="19.24" rx="3.97" style="fill:#92E3A9;stroke:#263238;stroke-linecap:round;stroke-linejoin:round"></rect><rect x="200.38" y="228.22" width="16.71" height="19.24" rx="3.97" style="fill:#92E3A9;stroke:#263238;stroke-linecap:round;stroke-linejoin:round"></rect><rect x="219.01" y="228.22" width="16.71" height="19.24" rx="3.97" style="fill:#92E3A9;stroke:#263238;stroke-linecap:round;stroke-linejoin:round"></rect><rect x="237.64" y="228.22" width="16.71" height="19.24" rx="3.97" style="fill:#92E3A9;stroke:#263238;stroke-linecap:round;stroke-linejoin:round"></rect><rect x="256.28" y="228.22" width="16.71" height="19.24" rx="3.97" style="fill:#92E3A9;stroke:#263238;stroke-linecap:round;stroke-linejoin:round"></rect><rect x="274.91" y="228.22" width="16.71" height="19.24" rx="3.97" style="fill:#92E3A9;stroke:#263238;stroke-linecap:round;stroke-linejoin:round"></rect><rect x="191.06" y="250.52" width="16.71" height="19.24" rx="3.97" style="fill:#92E3A9;stroke:#263238;stroke-linecap:round;stroke-linejoin:round"></rect><rect x="209.69" y="250.52" width="16.71" height="19.24" rx="3.97" style="fill:#92E3A9;stroke:#263238;stroke-linecap:round;stroke-linejoin:round"></rect><rect x="228.33" y="250.52" width="16.71" height="19.24" rx="3.97" style="fill:#92E3A9;stroke:#263238;stroke-linecap:round;stroke-linejoin:round"></rect><rect x="246.96" y="250.52" width="16.71" height="19.24" rx="3.97" style="fill:#92E3A9;stroke:#263238;stroke-linecap:round;stroke-linejoin:round"></rect><rect x="265.59" y="250.52" width="16.71" height="19.24" rx="3.97" style="fill:#92E3A9;stroke:#263238;stroke-linecap:round;stroke-linejoin:round"></rect><circle cx="236.43" cy="94.23" r="27.86" transform="translate(42.32 258.85) rotate(-62.03)" style="fill:#fff;stroke:#263238;stroke-linecap:round;stroke-linejoin:round"></circle><path d="M236.43,122.08a27.66,27.66,0,0,0,16.85-5.68,59.53,59.53,0,0,0-20.4-3.72,43.5,43.5,0,0,0-14.62,2.65A27.77,27.77,0,0,0,236.43,122.08Z" style="fill:#92E3A9;stroke:#263238;stroke-linecap:round;stroke-linejoin:round"></path><path d="M228.93,106.65s-.24-9.08-2.79-15.72-4-16.45,5.73-17.81,13.58.25,19.15-.19c10.7-.83-1.09,11.46-1.09,11.46L235.6,90S230.63,107.09,228.93,106.65Z" style="fill:#263238;stroke:#263238;stroke-linecap:round;stroke-linejoin:round"></path><path d="M228.28,109.29,230.81,99l7,2.12,2.11,8.38a5.64,5.64,0,0,0,3,3.72,17.76,17.76,0,0,1,3,1.77s-8.34,10.69-24.35,0a16.36,16.36,0,0,1,3.42-1.91A5.52,5.52,0,0,0,228.28,109.29Z" style="fill:#fff"></path><g style="clip-path:url(#freepik--clip-path-4--inject-53)"><path d="M250.15,84.71l.92,6.13a4.36,4.36,0,0,1-.16,1.93l-.53,1.67.31,4a4.28,4.28,0,0,1,0,.62c-.14,2-1.13,11.82-7,12.27-5.23.4-10.45-5-12.3-7.56a6.33,6.33,0,0,1-1-2.12l-.79-3.11a3.53,3.53,0,0,1-3.34-2.46c-.79-2.51-2.1-4.13.44-5.38S230.12,93,230.12,93s.66-4.13,1.36-5.31,2.86-2.3,3.52-3.31a14.94,14.94,0,0,0,.9-2.49s7.73,1.49,13.6.3Z" style="fill:#263238;stroke:#263238;stroke-linecap:round;stroke-linejoin:round"></path></g><path d="M228.28,109.29,230.81,99l7,2.12,2.11,8.38a5.64,5.64,0,0,0,3,3.72,17.76,17.76,0,0,1,3,1.77s-8.34,10.69-24.35,0a16.36,16.36,0,0,1,3.42-1.91A5.52,5.52,0,0,0,228.28,109.29Z" style="fill:none;stroke:#263238;stroke-linecap:round;stroke-linejoin:round"></path><path d="M250.15,83.62l.92,6.13a4.37,4.37,0,0,1-.16,1.93l-.53,1.67.31,4a4.44,4.44,0,0,1,0,.63c-.14,2-1.13,11.82-7,12.27-5.23.4-10.45-5-12.3-7.56a6.43,6.43,0,0,1-1-2.12l-.79-3.11A3.53,3.53,0,0,1,226.24,95c-.79-2.51-2.1-4.13.44-5.38s3.44,2.28,3.44,2.28.66-4.13,1.36-5.31,2.86-2.3,3.52-3.31a14.94,14.94,0,0,0,.9-2.49s7.73,1.49,13.6.3Z" style="fill:#fff;stroke:#263238;stroke-linecap:round;stroke-linejoin:round"></path><path d="M246,93.85l1.92,4.64a1,1,0,0,1-.89,1.42l-2.39.16" style="fill:none;stroke:#263238;stroke-linecap:round;stroke-linejoin:round;stroke-width:0.75px"></path><path d="M240.05,101.8a3,3,0,0,0,4.47,1.11" style="fill:none;stroke:#263238;stroke-linecap:round;stroke-linejoin:round;stroke-width:0.75px"></path><path d="M240,76.3c-10.36-1.18-12.27,2.91-12.27,2.91" style="fill:none;stroke:#7f7f7f;stroke-linecap:round;stroke-linejoin:round;stroke-width:0.75px"></path><path d="M251.37,75.17a39.26,39.26,0,0,1-9.09,1.17" style="fill:none;stroke:#7f7f7f;stroke-linecap:round;stroke-linejoin:round;stroke-width:0.75px"></path><path d="M242,79.28c2.95,0,8.91-.55,11.29-3.27" style="fill:none;stroke:#7f7f7f;stroke-linecap:round;stroke-linejoin:round;stroke-width:0.75px"></path><path d="M237.64,78.78a18.83,18.83,0,0,0,2.32.38" style="fill:none;stroke:#7f7f7f;stroke-linecap:round;stroke-linejoin:round;stroke-width:0.75px"></path><path d="M241.84,93.18c0,.8-.32,1.44-.72,1.44s-.72-.64-.72-1.44.33-1.44.72-1.44S241.84,92.39,241.84,93.18Z" style="fill:#263238"></path><path d="M248.62,93c0,.69-.28,1.25-.62,1.25s-.63-.56-.63-1.25.28-1.25.63-1.25S248.62,92.3,248.62,93Z" style="fill:#263238"></path><path d="M238.77,91.06s.86-2.57,2.35-2.5a2.7,2.7,0,0,1,2.17,1.5" style="fill:none;stroke:#263238;stroke-linecap:round;stroke-linejoin:round;stroke-width:0.75px"></path><path d="M249.09,90c-.28-.69-.71-1.47-1.28-1.43-1,.06-1.49,1.5-1.49,1.5" style="fill:none;stroke:#263238;stroke-linecap:round;stroke-linejoin:round;stroke-width:0.75px"></path></g><g id="freepik--Character--inject-53"><path d="M94.09,211.42c2-4.86-2.89-19.56-5.08-25.59a2.27,2.27,0,0,0-3.65-.91c-2,1.77-4.39,5.21-4.79,11.59,0,0-15.26,26.87-15.26,39.13,0,11.49,22.72,35.42,22.72,35.42a10.61,10.61,0,0,0,6.06-4.86s-8.49-21-15.08-30C79,236.21,91.84,216.8,94.09,211.42Z" style="fill:#263238"></path><g style="clip-path:url(#freepik--clip-path-5--inject-53)"><path d="M91.54,219.28s-7.27-15.49-10-14.1-9.81,27.51-7.1,31.67,17.49,33.53,21.19,32.94S91.54,219.28,91.54,219.28Z" style="opacity:0.2"></path></g><path d="M94.09,211.42c2-4.86-2.89-19.56-5.08-25.59a2.27,2.27,0,0,0-3.65-.91c-2,1.77-4.39,5.21-4.79,11.59,0,0-15.26,26.87-15.26,39.13,0,11.49,22.72,35.42,22.72,35.42a10.61,10.61,0,0,0,6.06-4.86s-8.49-21-15.08-30C79,236.21,91.84,216.8,94.09,211.42Z" style="fill:none;stroke:#263238;stroke-linecap:round;stroke-linejoin:round"></path><path d="M92.16,264.3l3.43,5.49s10.68,3.34,11.79,6.87-4.36,8.45-7.61,7.46-8.55-10.79-8.55-10.79l-4.32-5Z" style="fill:#fff;stroke:#263238;stroke-linecap:round;stroke-linejoin:round"></path><path d="M85.43,269.67l2.31,2.66a13.19,13.19,0,0,0,7.76-5.92l-1.4-3.33S92.13,267.7,85.43,269.67Z" style="fill:#92E3A9;stroke:#263238;stroke-linecap:round;stroke-linejoin:round"></path><path d="M99.12,416.85l-3,12.45a2.84,2.84,0,0,0,2.76,3.5H116.4a2.85,2.85,0,0,0,2.81-3.33,6.78,6.78,0,0,0-2.92-4.65c-4-2.6-5.9-10.74-5.9-10.74Z" style="fill:#263238;stroke:#263238;stroke-linecap:round;stroke-linejoin:round"></path><path d="M142.29,418.93S139.46,423,139,430.26a2.43,2.43,0,0,0,2.43,2.54h31.07a2.92,2.92,0,0,0,1.84-5.2,9,9,0,0,0-4.53-1.74c-7.62-1-14.37-4.5-15.59-9Z" style="fill:#263238;stroke:#263238;stroke-linecap:round;stroke-linejoin:round"></path><path d="M94.09,266.2s-3.52,14.56-2.13,46l.9,35.6s-5.06,25,4.65,70.26c0,0,3,6.7,15.09-1.68L114,347.33l12.65-76.27Z" style="fill:#999"></path><g style="clip-path:url(#freepik--clip-path-6--inject-53)"><path d="M119.25,298.33s-5.16,20.57-7.24,32.59-14.45,11.1-15.94,19,13-1.39,11.59,27-6.48,43.91,1.48,43.68S117.33,398,117.33,398l4.85-68.18v-9.48l1.16-18Z" style="opacity:0.2"></path></g><path d="M94.09,266.2s-3.52,14.56-2.13,46l.9,35.6s-5.06,25,4.65,70.26c0,0,3,6.7,15.09-1.68L114,347.33l12.65-76.27Z" style="fill:none;stroke:#263238;stroke-linecap:round;stroke-linejoin:round"></path><path d="M96.07,355.52a23.78,23.78,0,0,0-1.49,2.22" style="fill:none;stroke:#263238;stroke-linecap:round;stroke-linejoin:round"></path><path d="M96.7,347.68s11.6-2.77,12.39,0c.68,2.41-5.59-.42-11.78,6.34" style="fill:none;stroke:#263238;stroke-linecap:round;stroke-linejoin:round"></path><path d="M116.81,303.33c9,14.53,21.67,43.12,21.67,43.12s-1.91,3.31,0,8.86c0,0-5,19.31,2.25,65.48,0,0,6.24,4,15.26-3,0,0,4.5-69.4,2.77-78.76s-18-71.18-18-71.18H105" style="fill:#999"></path><g style="clip-path:url(#freepik--clip-path-7--inject-53)"><path d="M114.78,304.34s5.45,2.77,15.9,0,1.79,9,5.25,21.84,13.18,18.73,11.62,24.27-6.18,6.94-7.17,21.85,12.09,42.45,6.94,48.09-17.63-7.7-17.63-7.7L119.25,342Z" style="opacity:0.2"></path></g><path d="M116.81,303.33c9,14.53,21.67,43.12,21.67,43.12s-1.91,3.31,0,8.86c0,0-5,19.31,2.25,65.48,0,0,6.24,4,15.26-3,0,0,4.5-69.4,2.77-78.76s-18-71.18-18-71.18H105" style="fill:none;stroke:#263238;stroke-linecap:round;stroke-linejoin:round"></path><path d="M145.1,348.9c4.11-.62,9.36-1,9.15.86-.34,3.12-7.67-.05-12.13,5.2" style="fill:none;stroke:#263238;stroke-linecap:round;stroke-linejoin:round"></path><path d="M140.38,349.76s.72-.16,1.83-.37" style="fill:none;stroke:#263238;stroke-linecap:round;stroke-linejoin:round"></path><path d="M169,169.72l.65-6.6s-1.3-6.87-.65-9.2,6.35-17.1,8.16-16.45-2.72,8.68-2.59,11c0,0,2.41.13,3,1.68,0,0,2.29.39,2.42,2.46a3.66,3.66,0,0,1,1.68,3.37c-.25,2.2-4.66,8.16-4.66,8.16l.26,8.55Z" style="fill:#fff;stroke:#263238;stroke-linecap:round;stroke-linejoin:round"></path><path d="M130.66,158.57s-2.55-5-2.92-6.88c-.27-1.31.27-4,0-5.32-.62-3.05-4.89-11.44-4.89-11.44a2.31,2.31,0,0,0-.76-.9l-2.5,3.08h-6.78l-10.36,13.68,5.1,12.28-1.49,1.77c.91.9,1.49,1.42,1.49,1.42l-1.49,8.91,14.6,1.48L121,171h4.44a2.26,2.26,0,0,0,2.26-2.26V161l2-.58A1.37,1.37,0,0,0,130.66,158.57Z" style="fill:#fff;stroke:#263238;stroke-linecap:round;stroke-linejoin:round"></path><path d="M95.35,154.12c5.88,8.66,12.2,12.14,12.2,12.14l2.49-6.19s-5-.53-4.25-5.39c1.17-7.17,7-.72,7-.72l1.26-5.54s3.11-3.34,2.89-4.51a20.42,20.42,0,0,0-.66-2.51s11.25-10.71,10.06-16.68c0,0-9.37,1.9-20.55,4C92.18,131.18,88.71,144.36,95.35,154.12Z" style="fill:#263238;stroke:#263238;stroke-linecap:round;stroke-linejoin:round"></path><path d="M125.48,171s-7.83-1.33-10.82-5-.61.26.79,2.51C118.45,173.32,121,171,125.48,171Z" style="fill:#263238"></path><path d="M120.66,159.74a5,5,0,0,0,4.38,1.65" style="fill:none;stroke:#263238;stroke-linecap:round;stroke-linejoin:round;stroke-width:0.75px"></path><path d="M126.36,150.17c0,.7-.26,1.26-.59,1.26s-.58-.56-.58-1.26.26-1.26.58-1.26S126.36,149.48,126.36,150.17Z" style="fill:#263238"></path><path d="M126.25,146.49a3.5,3.5,0,0,0-4,2.12" style="fill:none;stroke:#263238;stroke-linecap:round;stroke-linejoin:round;stroke-width:0.75px"></path><path d="M98.43,179.06s0-6.84,11.79-5.78c14.33,1.3,20.11,8.64,20.11,8.64Z" style="fill:#92E3A9;stroke:#263238;stroke-linecap:round;stroke-linejoin:round"></path><path d="M121.55,177.83c8.93,1,24.5,3.15,23.57,27.16s-4.39,62.84-4.39,62.84S96.07,286.91,91,269.21c0,0,2.32-20-5.08-51.13S81.87,173.5,121.55,177.83Z" style="fill:#263238"></path><g style="clip-path:url(#freepik--clip-path-8--inject-53)"><path d="M147.38,245.17s-5.83,1.4-23.69-8.32c-28-15.27-31.14-37.68-39-34s7.77,75.95,7.77,75.95l29,1.82h26.88Z" style="opacity:0.2"></path></g><path d="M121.55,177.83c8.93,1,24.5,3.15,23.57,27.16s-4.39,62.84-4.39,62.84S96.07,286.91,91,269.21c0,0,2.32-20-5.08-51.13S81.87,173.5,121.55,177.83Z" style="fill:none;stroke:#263238;stroke-linecap:round;stroke-linejoin:round"></path><path d="M70,235.2q-.75.18-1.59.45" style="fill:none;stroke:#7f7f7f;stroke-linecap:round;stroke-linejoin:round;stroke-width:0.75px"></path><path d="M77.38,235.65s-1.88-1.34-6-.72" style="fill:none;stroke:#7f7f7f;stroke-linecap:round;stroke-linejoin:round;stroke-width:0.75px"></path><path d="M125,178.27s15.47.1,22.4,4.26c0,0,12.25-2.08,17.11,0l4.39-16.41s5.78-2.78,8.55,1.38c0,0,2.08,25-1.38,27.05s-30.94,8.32-30.94,8.32S127.58,197.59,125,178.27Z" style="fill:#263238"></path><g style="clip-path:url(#freepik--clip-path-9--inject-53)"><path d="M145,198.63s-.81-6.43,11-5.6,21,1.06,22.17-4.49,14.12-15.15,10,2.82l-4.17,18L159.16,211Z" style="opacity:0.2"></path></g><path d="M125,178.27s15.47.1,22.4,4.26c0,0,12.25-2.08,17.11,0l4.39-16.41s5.78-2.78,8.55,1.38c0,0,2.08,25-1.38,27.05s-30.94,8.32-30.94,8.32S127.58,197.59,125,178.27Z" style="fill:none;stroke:#263238;stroke-linecap:round;stroke-linejoin:round"></path><path d="M167.38,183.76a15.81,15.81,0,0,1,3.4,3.85" style="fill:none;stroke:#7f7f7f;stroke-linecap:round;stroke-linejoin:round;stroke-width:0.75px"></path><path d="M164.88,182.69a2.55,2.55,0,0,1,1.09.24" style="fill:none;stroke:#7f7f7f;stroke-linecap:round;stroke-linejoin:round;stroke-width:0.75px"></path><path d="M85.59,211c-.54-5.18-2-14.69-1.43-21.27" style="fill:none;stroke:#7f7f7f;stroke-linecap:round;stroke-linejoin:round;stroke-width:0.75px"></path><path d="M81.5,198.63s2.7,16,4,16" style="fill:none;stroke:#7f7f7f;stroke-linecap:round;stroke-linejoin:round;stroke-width:0.75px"></path><line x1="91.21" y1="258.05" x2="91.21" y2="267.03" style="fill:none;stroke:#7f7f7f;stroke-linecap:round;stroke-linejoin:round;stroke-width:0.75px"></line><path d="M106.45,280.64s1.45,10.15,5.91,16.42" style="fill:#999;stroke:#263238;stroke-linecap:round;stroke-linejoin:round"></path><path d="M167.64,164.23l-1,3.72s6.76-1.6,12.74,1.61l-.61-4.35S174.9,162.32,167.64,164.23Z" style="fill:#92E3A9;stroke:#263238;stroke-linecap:round;stroke-linejoin:round"></path><path d="M130.71,260.13c-4.87,2.16-14.53,4.06-33.5,2.19" style="fill:none;stroke:#7f7f7f;stroke-linecap:round;stroke-linejoin:round;stroke-width:0.75px"></path><path d="M135.59,256.15a5.36,5.36,0,0,1-1.92,2.26" style="fill:none;stroke:#7f7f7f;stroke-linecap:round;stroke-linejoin:round;stroke-width:0.75px"></path><path d="M149,183l7.89,4.88" style="fill:none;stroke:#7f7f7f;stroke-linecap:round;stroke-linejoin:round;stroke-width:0.75px"></path><path d="M136.68,224.07a38.73,38.73,0,0,0,9-21" style="fill:none;stroke:#7f7f7f;stroke-linecap:round;stroke-linejoin:round;stroke-width:0.75px"></path><path d="M132.08,222.62a64.75,64.75,0,0,1-23.42,17.12" style="fill:none;stroke:#7f7f7f;stroke-linecap:round;stroke-linejoin:round;stroke-width:0.75px"></path><path d="M136,217.54c-.75,1.08-1.54,2.13-2.37,3.16" style="fill:none;stroke:#7f7f7f;stroke-linecap:round;stroke-linejoin:round;stroke-width:0.75px"></path><path d="M138.41,213.92c-.38.64-.78,1.26-1.18,1.88" style="fill:none;stroke:#7f7f7f;stroke-linecap:round;stroke-linejoin:round;stroke-width:0.75px"></path><path d="M95.18,252a56.63,56.63,0,0,0,32.37,4.43" style="fill:none;stroke:#7f7f7f;stroke-linecap:round;stroke-linejoin:round;stroke-width:0.75px"></path><path d="M122.25,127.82a16.76,16.76,0,0,0,2.94-1.65" style="fill:none;stroke:#7f7f7f;stroke-linecap:round;stroke-linejoin:round;stroke-width:0.75px"></path><path d="M97.89,151.43s-5.55-10.18.86-15.73c4.89-4.22,13.61-4.62,20.59-6.8" style="fill:none;stroke:#7f7f7f;stroke-linecap:round;stroke-linejoin:round;stroke-width:0.75px"></path><path d="M102.56,144.2a5.32,5.32,0,0,1,1.22-5.4c3.81-3.62,14.93-4,20.47-9.51" style="fill:none;stroke:#7f7f7f;stroke-linecap:round;stroke-linejoin:round;stroke-width:0.75px"></path><path d="M104.82,148.91a14.67,14.67,0,0,1-1.22-2" style="fill:none;stroke:#7f7f7f;stroke-linecap:round;stroke-linejoin:round;stroke-width:0.75px"></path></g></svg>